<svg width="583" height="500" viewBox="0 0 583 500" fill="none" xmlns="http://www.w3.org/2000/svg">
<rect width="580" height="600" fill="white"/>
<path fill-rule="evenodd" clip-rule="evenodd" d="M211.859 173.656C211.458 180.218 211.056 186.779 210.654 193.34C213.238 192.597 229.676 187.763 228.661 192.664C227.933 196.179 223.311 199.982 220.956 202.429C218.789 204.683 216.558 206.877 214.269 209.007C218.475 207.398 222.716 205.875 226.988 204.449C230.22 203.371 233.475 202.317 236.787 201.509C238.016 201.209 241.336 199.984 242.497 200.819C245.549 203.014 228.991 219.181 226.723 221.46C229.93 219.969 233.214 218.615 236.554 217.453C238.965 216.614 246.416 213.408 248.55 216.146C250.834 219.075 245.175 225.802 243.606 227.935C241.357 230.991 238.921 233.922 236.364 236.725C246.991 246.265 259.478 254.755 272.768 260.033C282.513 263.902 292.084 264.887 302.367 262.764C312.931 260.582 323.061 256.398 332.692 251.614C338.347 248.804 343.929 245.765 349.245 242.349C347.054 239.684 344.925 236.964 342.858 234.202C339.907 230.259 336.28 225.95 334.597 221.256C332.95 216.662 339.128 217.559 342.092 217.808C346.384 218.169 350.663 218.936 354.869 219.853C351.896 217.786 348.976 215.636 346.115 213.417C342.385 210.524 337.411 207.253 334.97 203.091C332.824 199.432 337.535 200.356 339.713 200.836C344.907 201.979 349.96 203.928 354.913 205.828C358.541 207.22 362.146 208.677 365.716 210.212C363.5 208.287 361.358 206.27 359.3 204.178C356.533 201.366 352.802 197.932 351.561 194.061C349.035 186.176 366.028 192.124 368.93 193.34C368.393 185.172 367.858 177.004 367.323 168.836C344.821 174.82 322.32 180.804 299.818 186.789C297.387 187.436 294.343 188.844 291.807 188.919C289.51 188.988 286.736 187.954 284.496 187.527L243.777 179.751C233.138 177.72 222.499 175.688 211.859 173.656Z" fill="#FFEE33"/>
<path fill-rule="evenodd" clip-rule="evenodd" d="M453.701 454.602C451.272 455.991 448.427 457.064 445.728 457.784C444.143 458.207 441.524 459.513 440.132 458.316C439.463 457.741 439.31 456.436 438.916 455.68C438.291 454.482 437.404 453.448 436.573 452.39C434.558 449.825 432.461 447.351 430.268 444.938C429.228 443.794 427.329 441.125 425.498 441.301C423.215 441.519 423.27 444.678 423.842 446.291C425.663 451.428 431.177 455.906 434.78 459.777C433.864 461.185 428.834 461.017 427.438 460.688C425.305 460.185 425.089 458.667 424.116 456.931C421.84 452.875 417.222 450.605 413.426 448.22C412.042 447.35 409.101 444.94 407.297 445.546C405.588 446.121 405.662 448.303 406.206 449.728C407.029 451.882 409.368 453.375 411.098 454.737C413.405 456.551 415.514 458.525 417.437 460.746C414.666 460.972 411.905 461.362 409.141 461.59C405.799 461.866 403.013 460.033 399.936 458.994C397.077 458.028 394.228 457.212 391.416 456.099C388.26 454.85 384.953 454.415 381.769 453.319C369.273 449.017 357.028 443.607 344.986 438.154C339.248 435.555 333.628 432.955 327.65 430.922C323.293 429.439 316.445 426.485 315.404 421.298C314.854 418.557 316.857 415.61 317.152 412.871C317.499 409.65 317.226 406.106 316.244 403.015C315.379 400.292 313.945 397.77 312.814 395.156C311.498 392.109 312.676 392.159 315.235 391.812C318.296 391.397 321.869 389.674 324.747 388.553C328.063 387.259 331.349 385.453 334.386 383.596C337.132 381.916 339.522 379.75 341.708 377.399C343.932 375.006 345.372 372.171 347.523 369.72C355.459 379.475 363.002 389.378 371.435 398.71C375.415 403.116 379.743 406.758 384.647 410.108C386.695 411.507 388.727 413.104 390.958 414.21C393.749 415.595 396.868 416.453 399.736 417.716C410.732 422.559 421.226 427.852 431.485 434.1C436.448 437.122 440.613 440.587 444.983 444.379C446.343 445.559 457.486 452.438 453.701 454.602ZM324.709 374.69C322.932 375.495 321.238 376.54 319.342 377.056C319.88 373.788 322.931 368.858 326.844 369.4C328.339 369.607 329.466 370.767 328.81 372.367C328.212 373.82 325.975 374.118 324.709 374.69ZM201.019 286.042C199.004 287.154 197.127 287.802 195.946 285.416C196.821 285.24 200.796 284.711 201.019 286.042ZM197.665 279.297C196.108 278.825 197.353 278.329 197.889 277.76C198.306 277.317 199.688 275.762 200.171 275.506C202.307 274.375 203.957 278.582 204.978 279.947C202.561 279.732 200.018 280.01 197.665 279.297ZM214.31 293.863C211.36 294.362 211.687 290.673 211.775 288.803C212.398 289.563 216.611 293.473 214.31 293.863ZM224.089 287.489C220.492 288.096 218.115 281.884 218.76 279.167C219.327 276.773 222.115 275.437 224.335 275.084C226.486 274.742 229.481 275.209 230.12 277.688C230.685 279.88 226.487 287.085 224.089 287.489ZM309.247 381.264C306.662 382.058 304.128 382.158 301.53 382.937C298.582 383.822 295.853 383.743 292.899 384.345C291.697 384.59 288.455 386.34 287.283 385.949C286.122 385.562 284.441 381.96 283.773 381.023C289 378.852 293.459 376.049 296.904 371.473C299.644 367.835 302.581 362.384 300.858 357.689C298.914 352.394 292.214 351.245 287.747 353.456C285.633 354.502 283.539 355.802 281.797 357.396C279.804 359.218 279.021 361.207 277.73 363.454C276.425 365.727 275.509 364.463 274.205 362.533C273.091 360.883 273.236 359.217 271.843 357.589C271.133 356.759 270.032 355.958 269.662 354.885C269.426 354.205 269.922 352.999 269.476 352.464C268.849 351.711 268.086 352.595 267.561 351.924C267.179 351.436 267.304 350.324 266.91 349.713C266.568 349.366 266.188 349.07 265.767 348.824C265.257 348.572 265.164 348.257 265.488 347.878C265.082 347.128 265.473 346.875 264.605 345.962C263.251 344.539 262.016 343.176 261.053 341.496C260.612 340.728 260.656 339.587 260.109 338.922C259.358 338.009 258.107 338.146 257.461 337.015C256.886 336.008 257.271 334.245 256.322 333.331C255.822 333.188 255.322 333.048 254.821 332.91C254.445 332.544 254.226 332.101 254.163 331.579C253.636 330.768 253.531 329.816 252.866 328.96C251.594 327.322 249.881 325.809 248.757 324.082C247.575 322.268 248.202 321.962 250.255 321.313C252.107 320.726 253.797 320.182 255.514 319.184C263.449 314.569 270.972 302.326 258.377 298.586C253.703 297.198 249.863 293.466 244.681 294.933C242.434 295.569 240.303 296.923 238.627 298.53C237.469 299.641 236.396 302.612 234.974 303.181C232.418 304.204 233.499 301.648 232.773 300.474C232.427 299.913 231.032 299.267 230.516 298.757C229.909 298.159 229.323 297.404 228.902 296.664C228.12 295.291 227.642 294.526 226.514 293.408C226.089 292.986 223.968 290.805 225.881 291.09C225.106 288.729 226.237 288.375 227.8 286.65C229.636 284.624 231.531 281.81 231.542 278.973C231.563 273.524 225.103 271.083 221.046 274.317C220.221 274.975 215.338 281.328 216.338 277.277C216.876 275.092 221.863 269.388 224.176 270.864C221.584 267.089 215.632 276.254 214.243 278.129C213.06 275.952 212.976 274.249 211.019 272.564C209.425 275.118 210.267 272.327 209.915 271.759C209.156 270.534 209.573 271.935 209.162 271.5C208.649 270.958 207.842 270.53 207.297 269.812C206.363 271.079 206.736 269.716 206.45 269.243C205.781 268.137 206.04 267.496 204.893 266.533C204.058 265.834 202.414 264.748 201.29 264.648C199.995 264.534 199.636 265.03 198.317 264.663C196.638 264.196 194.525 263.479 195.338 266.286C195.928 268.325 198.327 269.484 198.852 271.568C199.382 273.665 197.306 275.779 196.3 277.499C195.007 279.705 193.95 279.525 191.607 280.022C190.11 280.34 188.113 281.02 189.396 282.835C190.313 284.132 192.462 283.859 193.672 284.627C195.368 285.704 195.345 288.359 197.511 288.82C199.896 289.329 201.263 286.675 203.275 286.034C204.705 285.578 209.135 285.629 210.261 286.702C211.795 288.164 210.469 290.958 210.855 292.775C211.429 295.469 213.253 295.633 215.56 295.719C218.399 295.825 219.397 298.55 220.924 300.711C224.501 305.774 227.609 311.17 231.273 316.165C232.895 318.377 235.267 320.344 236.595 322.744C238.235 325.708 235.958 327.418 233.994 329.546C231.427 332.326 229.51 335.49 227.284 338.528C225.305 341.229 222.846 340.557 219.684 340.557C220.389 339.105 221.237 338.2 222.97 338.376C221.158 336.164 219.708 338.694 218.532 340.095C216.831 342.122 214.614 342.612 212.429 343.944C211.655 344.416 207.445 347.472 208.724 348.516C208.87 348.634 215.839 344.052 216.633 343.632C216.633 345.323 216.263 347.081 216.5 348.763C216.674 349.997 217.542 351.283 217.357 352.566C217.006 354.987 213.876 356.894 212.532 358.78C211.521 360.2 211.765 361.32 211.25 362.844C210.78 364.234 211.027 363.813 209.857 364.243C207.474 365.117 203.465 364.645 201.308 363.402C199.969 362.63 198.942 361.41 197.854 360.335C197.034 359.525 194.974 358.14 194.746 357.006C194.355 355.054 198.234 351.425 199.002 349.411C201.17 343.727 197.452 339.308 191.666 338.986C193.449 337.611 195.66 338.647 197.539 339.171C194.326 334.721 188.839 338.383 186.113 341.407C184.251 336.702 183.353 331.739 182.216 326.833C181.44 323.492 178.491 317.529 179.806 314.09C180.443 312.427 182.238 311.5 183.48 310.346C184.891 309.036 186.1 307.47 187.131 305.848C189.562 302.027 190.966 297.204 187.619 293.439C188.636 293.272 189.653 293.105 190.67 292.938C189.016 291.384 186.407 292.141 184.26 291.681C182.898 291.389 178.979 291.578 178.07 290.807C176.976 289.881 177.677 285.619 177.716 284.358C177.806 281.41 178.052 278.576 178.378 275.646C178.687 272.878 178.625 269.887 179.197 267.168C179.662 264.961 181.146 264.289 182.859 262.988C186.954 259.879 190.291 256.097 188.893 250.738C189.388 250.659 189.883 250.581 190.379 250.502C188.777 249.344 186.703 249.765 184.921 249.153C186.558 244.55 190.177 236.458 196.054 236.022C196.256 238.08 196.118 240.527 197.507 242.231C199.088 244.17 201.865 244.365 204.007 243.339C205.951 242.407 207.776 240.433 208.672 238.482C209.278 237.162 209.169 234.929 210.233 233.882C211.66 232.478 221.499 233.325 221.197 235.695C221.02 237.088 218.389 239.43 217.654 240.664C216.308 242.924 215.231 245.368 214.737 247.963C213.986 251.904 214.421 257.106 218.425 259.178C222.979 261.535 228.529 258.538 232.264 255.949C234.315 254.528 236.301 252.959 238.175 251.312C239.172 250.435 240.175 249.532 241.055 248.535C241.704 247.799 242.223 246.612 243.022 246.061C244.911 244.759 246.762 246.968 248.36 248.084C250.963 249.901 253.553 251.627 256.347 253.14C262.016 256.21 267.2 260.275 272.213 264.312C277.256 268.374 282.454 272.551 286.539 277.611C284.065 279.132 284.507 279.527 283.406 282.24C282.625 284.165 281.549 285.804 281.425 287.943C281.21 291.635 283.581 294.781 287.181 295.598C289.194 296.055 291.111 295.689 292.976 294.867C294.425 294.228 295.87 292.654 297.384 292.263C300.199 291.538 302.451 296.852 304.029 298.724C311.036 307.038 318.444 315.023 325.042 323.677C325.773 324.635 327.943 326.507 328.12 327.776C328.373 329.599 325.505 331.335 324.315 332.38C323.69 332.928 317.065 339.156 319.29 340.146C319.924 340.428 321.78 336.607 322.244 336.28C323.982 335.057 322.668 337.455 322.564 338.667C322.305 341.681 324.376 343.323 327.287 342.941C330.394 342.533 333.16 340.082 335.082 337.767C337.491 340.556 341.257 344.772 341.954 348.497C342.399 350.877 340.338 356.702 344.185 357.187C344.772 357.261 346.897 355.686 347.293 356.58C347.623 357.327 345.326 358.603 344.995 358.85C343.579 359.906 342.725 361.037 341.582 362.316C340.24 363.818 338.407 365.082 336.898 366.521C335.307 368.037 332.162 372.153 330.064 370.164C329.009 369.165 329.287 367.858 327.598 367.272C326.059 366.738 324.111 367.415 322.681 368.007C321.072 368.674 315.772 371.107 315.184 373.11C314.373 375.873 318.753 372.551 319.532 372.066C318.644 374.319 318.153 377.582 315.891 378.896C314.011 379.989 311.308 380.631 309.247 381.264ZM279.204 364.22C280.708 359.389 289.578 350.774 295.184 353.468C288.65 354.837 283.465 359.306 279.204 364.22ZM282.521 378.057C280.334 376.839 280.452 373.302 279.689 371.233C279.251 370.045 278.375 369.178 278.632 367.86C278.934 366.316 280.905 364.599 281.954 363.485C285.257 359.978 291.068 355.187 296.384 355.99C303.149 357.014 298.563 366.092 296.259 369.218C294.296 371.883 286.729 380.401 282.521 378.057ZM266.738 372.148C259.421 371.659 252.129 371.006 244.912 369.663C242.354 369.187 240.21 369.258 241.674 366.318C242.157 365.347 245.072 359.266 245.73 359.44C246.12 359.543 246.031 363.724 246.146 364.203C246.662 366.354 248.113 368.36 250.559 368.223C254.561 368 257.14 362.829 259.247 360.053C260.935 362.322 262.157 364.841 263.854 367.072C264.665 368.138 267.488 370.618 266.738 372.148ZM223.842 343.444C222.615 346.259 220.146 348.936 218.429 351.487C217.458 349.433 216.776 344.718 219.078 343.2C219.95 342.626 224.618 341.664 223.842 343.444ZM249.218 351.827C249.556 350.743 249.93 349.668 250.347 348.612C251.063 350.864 251.429 350.931 249.218 351.827ZM255.481 354.133C256.369 355.637 257.85 357.117 257.617 359.006C257.441 360.438 256.146 361.905 255.222 362.902C253.692 364.553 250.302 367.72 248.085 365.529C246.233 363.698 246.878 358.665 247.739 356.605C248.969 353.662 253.364 350.549 255.481 354.133ZM251.136 351.05C251.645 350.847 250.575 347.564 251.568 347.237C252.434 349.21 253.249 349.743 251.136 351.05ZM237.155 306.859C236.825 305.647 236.069 305.698 236.342 304.2C236.52 303.218 237.3 302.17 237.892 301.391C239.071 299.84 240.626 298.562 242.308 297.594C245.859 295.552 250.735 294.703 253.914 297.901C250.942 298.37 241.831 301.302 241.773 305.365C245.078 304.728 247.677 301.41 250.992 300.365C253.712 299.506 256.663 299.567 259.37 300.473C266.778 302.953 263.698 309.353 259.516 313.51C257.034 315.978 254.057 317.821 250.803 319.092C249.297 319.681 248.373 319.746 246.893 319.45C246.616 319.394 246.292 318.88 245.959 318.77C245.134 318.497 245.373 319.423 244.692 319.007C244.099 318.645 242.833 316.303 242.429 315.632C241.786 314.566 241.486 313.528 240.698 312.554C239.908 311.579 239.524 310.273 238.793 309.391C238.442 308.967 237.481 308.984 237.223 308.57C236.836 307.948 237.329 307.495 237.155 306.859ZM225.777 354.588C227.461 351.664 230.342 349.182 232.571 346.626C232.708 350.827 229.694 353.703 225.777 354.588ZM228.053 355.939C231.53 354.716 233.446 351.79 233.801 348.243C234.251 343.749 237.074 341.391 238.773 337.354C239.425 335.807 240.185 330.716 242.711 332.173C243.577 332.673 244.091 334.553 244.543 335.402C245.635 337.456 246.878 339.448 248.036 341.465C248.98 343.108 250.394 344.759 249.978 346.736C249.615 348.46 248.447 350.296 247.763 351.922C246.147 355.761 244.026 359.297 242.253 363.052C241.537 364.567 240.691 368.154 238.507 368.135C236.778 368.121 236.971 366.232 235.833 365.584C234.397 364.767 232.763 366.322 231.583 366.967C232.942 364.674 235.318 363.375 237.988 363.807C234.791 360.624 232.63 364.919 229.886 365.875C227.286 366.781 222.673 362.507 220.484 361.296C221.321 359.879 222.078 358.145 223.518 357.212C224.884 356.327 226.561 356.463 228.053 355.939ZM199.781 385.022C200.161 383.19 201.237 382.107 201.92 380.443C202.711 382.46 200.858 383.651 199.781 385.022ZM255.03 396.267C254.843 402.438 254.339 408.593 254.157 414.766C254.073 417.612 253.569 420.328 253.234 423.141C252.951 425.521 253.095 427.857 251.596 429.89C249.233 433.095 244.64 434.017 241.073 435.204C238.454 436.076 235.805 436.867 233.219 437.835C230.892 438.707 229.016 440.027 226.803 441.063C224.824 441.991 222.686 442.54 220.716 443.528C218.678 444.549 217.067 445.794 214.974 446.704C212.468 447.792 210.403 449.729 208.174 451.267C206.212 452.62 204.136 453.666 202.448 455.368C200.865 456.965 198.862 457.665 197.068 459.083C195.172 460.584 193.186 461.559 191.091 462.735C186.799 465.146 181.008 469.263 175.843 466.921C177.32 465.035 180.344 463.223 180.574 460.624C180.873 457.24 177.925 458.486 176.218 459.567C173.633 461.203 172.203 463.18 170.235 465.362C167.934 467.912 165.028 466.196 162.212 465.479C164.137 463.747 166.047 461.999 167.968 460.264C169.591 458.8 172.072 457.216 173.06 455.191C173.766 453.743 173.732 451.759 172.028 451.007C170.122 450.167 167.967 451.939 166.555 452.995C162.807 455.797 160.339 459.351 157.878 463.251C156.569 465.324 155.966 465.165 153.559 464.751C151.007 464.311 148.455 463.843 145.882 463.535C149.29 460.037 153.099 456.247 155.791 452.154C156.663 450.827 157.8 447.332 155.144 447.01C154.049 446.878 151.869 449.116 151.024 449.719C147.333 452.355 143.785 455.681 141.339 459.531C140.531 460.801 140.277 462.215 138.714 462.32C136.669 462.458 132.87 460.508 130.898 459.905C134.667 455.157 138.41 450.373 142.814 446.186C146.86 442.337 150.896 439.541 155.628 436.59C160.7 433.426 165.424 429.784 170.081 426.046C174.538 422.468 179.194 419.093 183.297 415.098C191.492 407.118 198.791 397.941 204.836 388.237C206.251 385.966 207.582 383.636 208.733 381.22C209.814 378.951 210.312 376.238 211.771 374.174C212.275 373.461 212.985 372.931 213.435 372.187C213.859 371.486 213.715 370.64 214.361 370.019C215.856 368.585 218.577 369.45 219.974 370.455C222.221 372.071 224.038 374.033 226.507 375.386C228.99 376.747 231.677 377.736 234.426 378.405C240.853 379.967 247.225 381.248 253.772 382.197C253.098 384.694 254.753 385.088 255.301 387.335C255.967 390.061 255.113 393.49 255.03 396.267ZM193.147 354.625C191.689 352.462 190.389 350.199 188.957 348.022C188.085 346.695 187.004 345.271 187.749 343.649C189.005 340.914 193.435 340.427 195.838 341.619C201.303 344.33 196.227 352.08 193.147 354.625ZM178.681 305.14C178.178 300.911 179.796 297.91 183.624 295.693C186.353 294.112 188.55 296.272 188.177 299.153C187.61 303.543 182.917 308.425 179.336 310.715C179.102 308.859 178.903 306.998 178.681 305.14ZM178.098 293.04C179.227 292.144 182.251 293.287 183.559 293.365C181.76 294.936 179.961 296.507 178.161 298.078C178.043 297 177.056 293.866 178.098 293.04ZM184.169 252.197C193.274 251.014 182.793 260.78 180.155 262.31C180.584 260.232 181.639 252.527 184.169 252.197ZM208.408 235.1C207.186 240.105 197.681 245.566 197.582 237.367C197.545 234.312 199.262 234.559 201.768 234.266C203.198 234.099 209.107 232.239 208.408 235.1ZM175.579 242.852C174.512 245.65 173.656 248.522 172.61 251.324C172.147 252.565 171.602 253.417 170.739 254.401C170.016 255.223 169.157 255.43 169.185 256.729C170.09 256.555 170.798 256.016 171.53 255.496C171.352 258.072 170.441 260.844 170 263.411C169.472 266.49 169.032 269.571 168.869 272.693C168.515 279.482 168.512 286.246 168.661 293.04C168.737 296.501 168.771 299.965 168.958 303.422C169.051 305.142 169.157 306.869 169.369 308.579C169.456 309.269 169.957 310.739 169.647 311.385C168.431 313.925 163.044 306.95 160.705 307.973C161.041 306.041 160.265 306.464 158.969 305.514C158.341 305.053 157.932 304.269 157.277 303.859C157.079 303.646 156.861 303.456 156.623 303.289C156.353 302.92 156.067 302.96 155.767 303.407C153.131 301.832 152.45 298.476 151.035 296.219C150.308 295.058 149.605 294.877 149.48 293.272C149.373 291.873 149.583 290.448 149.527 289.044C149.462 287.46 149.369 285.713 148.925 284.179C148.409 282.398 147.699 282.544 146.316 281.594C146.742 281.408 147.023 281.095 147.159 280.656C146.717 280.735 145.375 281.282 145.042 280.888C144.386 280.116 145.933 280.013 146.34 279.705C144.605 278.935 144.979 278.303 145.605 276.892C145.782 276.493 145.951 275.896 146.102 275.559C146.431 274.824 146.62 275.29 146.729 274.376C146.833 273.505 146.06 271.792 145.832 270.864C145.45 269.307 145.239 267.962 145.582 266.34C145.86 265.027 146.607 263.838 146.659 262.487C146.674 262.108 146.096 261.982 146.088 261.616C146.077 261.081 146.577 260.846 146.707 260.351C147.038 259.086 146.889 257.748 147.456 256.547C147.967 255.468 148.999 254.072 149.729 253.131C150.235 252.479 151.476 251.744 151.612 250.883C151.702 250.312 150.814 250.378 150.853 249.948C150.907 249.366 151.395 249.178 151.53 248.745C151.899 247.558 151.992 246.418 152.947 245.508C154.149 244.364 154.672 244.843 154.721 242.955C154.746 242.034 154.008 241.892 154.403 240.83C154.618 240.253 155.251 239.913 155.656 239.504C156.859 238.292 157.669 237.215 158.525 235.717C159.282 234.394 160.49 233.624 161.266 232.481C162.276 230.991 160.766 230.253 162.816 229.832C162.525 228.907 162.215 228.16 162.982 227.377C163.465 226.883 164.693 227.186 165.121 226.614C165.611 225.959 164.886 224.405 165.625 223.979C166.227 223.633 167.127 224.699 168.072 224.172C168.792 223.769 169.879 221.549 169.647 220.733C171.509 221.78 171.045 221.059 171.936 219.716C172.136 219.415 172.741 219.348 172.913 219.044C173.257 218.437 173.179 217.818 173.674 217.324C174.5 216.502 175.851 216.713 176.759 216.126C177.51 215.641 177.471 215.118 178.07 214.661C178.581 214.27 179.422 214.195 179.92 213.79C180.895 212.996 180.904 212.158 182.124 211.475C183.568 210.666 184.848 209.977 186.161 208.905C187.018 208.206 187.831 206.966 188.833 206.505C190.219 205.867 191.298 205.822 192.654 204.912C193.633 204.254 194.56 203.168 195.522 202.614C196.247 202.196 196.756 202.286 197.671 202.027C199.316 201.561 199.717 200.011 201.06 199.38C201.982 198.946 203.324 199.343 204.336 199.115C207.486 198.409 210.597 196.884 213.758 196.04C217.616 195.01 221.501 194.107 225.389 193.197C221.816 198.036 217.266 202.403 212.651 206.246C211.136 207.508 202.835 213.26 207.309 215.716C209.105 216.702 213.007 213.518 214.458 212.739C217.377 211.172 220.402 209.917 223.46 208.649C228.406 206.599 234.846 202.953 240.342 203.246C236.996 207.348 232.82 210.641 228.994 214.265C225.477 217.595 220.179 220.719 221.837 226.17C216.898 224.914 212.462 223.429 207.327 223.758C205.026 223.905 202.725 223.629 200.435 223.951C197.945 224.303 195.6 225.135 193.208 225.866C191.315 226.444 189.223 226.49 187.481 227.45C186.639 227.915 185.599 228.579 184.843 229.155C183.835 229.924 183.605 230.433 182.814 231.446C179.99 235.06 177.257 238.449 175.579 242.852ZM160.131 311.257C159.977 310.632 159.836 310.061 159.66 309.347C161.232 310.314 161.232 310.314 160.131 311.257ZM148.251 291.334C148.057 291.602 147.243 291.688 147.006 291.457C146.712 291.169 147.486 290.05 147.61 289.813C147.917 290.048 148.623 290.819 148.251 291.334ZM144.885 284.083C145.093 283.319 145.302 282.556 145.51 281.792C145.765 282.5 146.918 283.283 146.943 283.957C146.959 284.404 145.113 284.182 144.885 284.083ZM145.553 285.131C147.357 286.318 147.545 287.718 147.599 289.767C145.441 289.052 145.751 286.964 145.553 285.131ZM176.921 204.298C176.739 204.79 175.966 206.325 175.4 205.252C175.219 204.908 176.544 204.439 176.921 204.298ZM176.403 202.625C176.849 202.223 177.747 202.723 178.252 202.398C178.605 202.171 178.488 201.94 178.654 201.805C178.687 201.778 179.168 200.806 179.365 200.585C179.712 200.197 180.471 199.956 180.894 199.606C182.075 198.627 182.742 197.34 183.485 196.032C184.372 194.469 184.654 194.288 186.084 193.572C187.07 193.079 187.835 192.475 188.637 191.637C189.562 190.671 189.494 189.98 190.253 188.924C190.628 188.404 191.167 188.339 191.604 187.919C192.128 187.417 192.394 186.714 192.878 186.206C193.088 185.987 193.759 185.987 193.886 185.799C194.047 185.562 194.173 184.611 194.324 184.436C194.614 184.826 194.903 185.216 195.192 185.607C196.332 183.603 197.163 181.948 199.069 180.615C201.071 179.214 202.799 177.166 204.868 175.912C205.333 175.631 206.281 175.512 206.636 175.097C207.237 174.394 206.716 173.769 207.155 173.173C207.652 172.496 208.615 173.044 209.247 172.752C210.047 172.383 210.275 171.305 211.305 171.424C207.919 175.428 207.962 181.658 207.782 186.659C207.704 188.813 209.062 189.9 207.057 191.481C205.352 192.826 202.948 192.427 200.932 193.312C198.4 194.424 195.692 195.015 193.11 195.984C190.438 196.986 188.289 198.74 185.718 199.901C183.451 200.924 181.903 202.379 179.829 203.642C179.058 204.111 177.864 204.793 176.944 204.232C176.369 203.88 175.652 203.303 176.403 202.625ZM214.648 169.054C214.795 168.485 217.686 166.99 218.397 166.502C219.464 165.769 221.043 163.978 222.235 164.69C222.647 163.037 224.258 161.199 225.681 160.849C227.259 160.46 229.968 159.107 231.521 157.926C231.974 157.581 232.124 157.077 232.658 156.753C233.587 156.19 234.509 156.497 235.404 155.729C235.541 155.612 236.78 153.568 236.829 153.588C236.892 153.807 236.95 154.029 237 154.252C237.94 153.731 238.778 153.316 239.363 152.651C239.496 152.501 238.635 152.109 238.907 151.81C239.24 151.445 239.983 151.853 240.319 151.506C239.273 156.698 240.052 163.38 245.322 166.012C239.055 166.69 232.934 164.806 226.589 165.963C223.552 166.517 220.465 167.426 217.702 168.822C216.009 169.677 213.845 172.742 212.16 171.254C212.829 170.363 213.849 169.809 214.648 169.054ZM245.058 154.117C247.401 151.252 250.956 150.119 254.536 151.145C258.728 152.346 256.96 155.273 256.327 158.523C255.118 156.751 252.497 154.993 250.266 154.94C247.103 154.865 248.299 157.499 250.198 158.442C251.925 159.3 254.886 159.539 256.123 161.098C257.326 162.615 256.865 165.096 257.059 166.886C256.123 166.747 255.188 166.608 254.252 166.469C255.037 162.293 251.582 162.091 248.361 160.913C245.105 159.724 242.391 157.378 245.058 154.117ZM255.556 143.834V147.71C254.253 146.967 252.949 146.225 251.646 145.482C252.949 144.933 254.253 144.384 255.556 143.834ZM266.032 174.801C270.383 175.98 274.705 177.227 278.888 178.853C280.408 179.444 282.072 179.653 283.561 180.32C284.978 180.954 285.191 180.888 284.687 182.13C283.274 185.608 279.928 185.008 276.997 184.475C272.408 183.642 267.914 182.487 263.383 181.4C258.953 180.339 254.431 179.643 250.068 178.313C245.592 176.948 241.229 175.655 236.624 174.754C235.281 174.491 224.65 173.516 224.731 172.406C231.426 171.537 238.319 172.393 245.044 172.483C252.033 172.577 259.253 172.965 266.032 174.801ZM260.124 161.345C260.208 158.953 260.241 156.553 260.538 154.175C262.53 156.632 264.328 157.368 266.839 155.065C269.242 152.86 269.779 151.711 272.826 153.783C275.468 155.581 277.968 155.498 280.774 153.925C282.485 152.965 285.235 149.043 287.035 149.85C287.892 150.235 288.52 151.786 289.386 152.357C290.472 153.072 292.142 153.568 293.408 153.845C296.397 154.5 298.179 152.578 300.055 150.523C302.776 147.542 302.696 149.273 305.22 151.34C308.034 153.645 310.387 152.519 312.935 150.552C314.487 155.097 315.068 160.061 315.506 164.827C315.654 166.436 316.207 168.721 314.761 169.858C313.742 170.661 311.579 170.692 310.351 171.136C305.964 172.721 301.749 174.97 298.08 177.849C296.65 178.971 295.404 180.344 293.451 180.089C291.589 179.845 289.78 178.288 288.283 177.259C286.658 176.144 285.014 174.878 283.115 174.256C282.003 173.892 280.222 174.024 279.248 173.356C277.439 172.115 279.568 168.859 279.118 166.674C278.777 165.014 277.821 161.554 275.535 162.527C272.132 163.974 274.112 169.623 275.983 171.386C272.155 170.707 267.917 169.715 264.225 168.454C261.373 167.48 260.022 164.262 260.124 161.345ZM324.327 172.995C332.185 170.79 339.538 169.303 347.716 168.901C351.336 168.723 354.84 168.835 358.42 168.868C360.481 168.887 362.051 167.226 360.405 165.315C358.126 162.67 351.176 163.677 348.097 163.558C339.842 163.239 332.274 164.177 324.457 166.896C325.283 165.374 327.269 165.177 328.63 164.39C330.3 163.424 331.435 161.832 332.149 160.066C334.004 155.473 332.136 151.144 330.195 146.948C334.009 147.973 337.954 150.219 341.787 150.789C342.591 150.908 343.107 150.831 343.818 151.124C344.255 151.303 344.392 151.924 344.933 152.059C345.195 152.125 345.822 151.534 346.118 151.618C347.286 151.948 346.362 152.035 347.101 152.513C347.686 152.892 347.639 153.38 348.714 153.201C349.19 153.122 349.707 152.385 349.958 152.365C350.278 152.339 350.204 151.95 350.694 152.064C351.584 152.271 351.506 153.417 351.802 153.981C352.119 154.582 351.669 155.381 352.63 155.71C353.348 155.956 353.529 155.198 354.139 155.252C354.51 155.285 355.28 155.819 355.607 156.144C356.663 157.192 358.107 158.349 359.526 159.031C359.387 158.891 360.195 158.553 360.002 158.474C359.872 158.422 360.721 158.626 360.708 158.623C361.527 158.81 361.96 160.067 362.373 160.525C363.135 161.365 364.318 162.252 365.385 162.623C367.23 163.265 367.174 162.498 367.847 164.689C369.159 162.628 369.662 166.08 371.289 166.46C372.132 166.657 372.034 166.296 372.799 166.737C373.325 167.039 373.675 167.964 374.071 168.411C374.242 167.767 374.411 167.122 374.581 166.479C375.753 168.698 378.282 172.216 381.056 171.58C381.056 172.185 380.806 172.909 381.275 173.426C381.603 173.787 382.133 173.377 382.39 173.587C382.613 173.77 383.148 174.5 383.32 174.62C383.657 174.856 384.27 175.029 384.563 175.265C384.822 175.472 384.949 176.464 385.236 176.822C385.775 177.496 386.706 177.63 387.146 178.437C387.247 177.641 387.347 176.844 387.447 176.047C388.321 176.722 388.396 177.246 388.611 178.233C388.916 179.638 388.511 179.309 389.481 179.902C390.434 180.486 390.931 180.42 391.805 181.432C392.662 182.425 392.669 183.036 393.905 182.002C394.135 182.767 394.209 183.756 394.823 184.342C395.286 184.785 397.206 184.804 397.389 185.85C393.783 182.809 396.156 187.428 397.391 185.858C397.652 187.538 398.883 188.081 400.288 189.278C401.599 190.393 401.813 190.312 402.261 192.186C402.251 192.145 402.919 192.559 402.968 192.642C401.691 192.824 403.671 194.251 404.005 194.511C404.25 194.702 404.568 194.247 404.973 194.555C405.437 194.908 405.815 195.709 406.193 196.192C407.216 197.502 407.974 198.627 409.051 199.692C410.213 200.841 410.778 202.294 411.894 203.638C413.132 205.13 413.802 206.845 414.837 208.465C415.822 210.005 417.129 211.242 418.269 212.652C420.085 214.897 420.703 219.84 424.09 219.97C423.892 220.175 424.168 221.708 424.2 221.99C424.36 223.382 424.254 224.72 425.077 225.98C425.266 224.543 426.019 225.097 426.672 225.852C427.76 227.109 426.805 226.792 426.862 228.065C426.932 229.609 427.108 228.415 427.696 229.763C428.156 230.818 428.409 231.503 428.656 232.674C426.743 232.826 425.867 231.263 425.16 229.75C424.864 229.116 424.762 228.075 424.239 227.581C423.682 227.054 422.917 227.012 422.344 226.425C421.246 225.295 420.77 223.534 419.475 222.435C418.013 221.193 417.689 220.606 416.48 219.122C415.142 217.48 413.296 216.326 411.893 214.738C410.487 213.147 410.601 214.016 408.836 213.44C406.959 212.826 403.924 206.928 401.559 209.2C401.652 207.714 399.425 206.316 398.3 205.777C397.813 205.545 397.247 205.755 396.76 205.406C396.232 205.028 396.194 204.298 395.661 203.844C395.662 203.845 394.845 204.042 394.679 203.959C394.342 203.788 394.339 203.184 394.041 202.985C393.217 202.434 392.235 201.857 391.36 201.388C389.234 200.249 387.356 198.846 385.304 197.474C383.547 196.298 381.42 194.175 379.389 193.556C377.614 193.015 376.499 193.29 375.046 192.206C374.255 191.616 374.488 191.418 373.216 191.051C372.005 190.701 371.325 190.881 370.684 189.598C369.562 187.353 370.27 182.97 370.053 180.453C369.823 177.78 369.549 175.042 368.852 172.444C368.027 169.373 366.938 167.767 363.642 168.491C357.112 169.925 350.661 171.29 344.101 172.55C331.029 175.059 318.182 179.155 305.397 182.791C304.423 183.068 298.991 184.311 300.101 181.503C300.612 180.208 304.05 179.726 305.201 179.319C311.52 177.084 317.868 174.807 324.327 172.995ZM322.13 167.28C321.175 167.644 320.221 168.008 319.266 168.372V165.719C320.221 166.239 321.175 166.759 322.13 167.28ZM318.163 153.251C318.992 153.929 320.679 152.298 321.384 151.967C322.589 151.403 324.123 150.919 325.469 151.035C327.952 151.249 329.767 153.692 329.313 156.169C328.543 160.359 322.569 162.34 319.276 163.978C319.17 162.493 318.689 160.708 319.731 159.424C320.636 158.309 322.39 158.39 323.225 157.203C325.325 154.222 319.632 153.952 318.36 156.322C317.858 154.807 317.356 153.292 316.854 151.777C318.066 151.577 317.534 152.738 318.163 153.251ZM324.038 145.049C322.853 145.815 321.667 146.581 320.483 147.347C319.895 144.696 321.897 144.347 324.038 145.049ZM432.035 237.315C430.482 238.055 430.094 236.287 428.978 236.211C430.297 235.401 430.297 235.401 432.035 237.315ZM438.347 275.919C438.54 278.46 438.389 281.03 438.728 283.561C438.985 285.487 439.766 287.278 439.849 289.226C440.031 293.49 438.59 297.833 435.681 300.959C432.928 303.916 428.989 306.461 425.274 307.705C423.599 308.264 421.852 309.506 420.225 309.964C418.426 310.472 416.717 309.367 415.233 311.349C414.244 302.847 414.967 293.963 414.889 285.407C414.811 276.833 414.903 268.256 413.452 259.774C412.159 252.22 409.611 243.723 404.915 237.543C403.007 235.034 400.658 232.978 398.181 231.054C396.896 230.056 395.61 228.988 394.179 228.2C391.975 226.987 390.099 227.155 387.703 226.809C384.273 226.314 381.085 225.896 377.643 226.861C374.439 227.76 370.91 228.783 368.04 230.344C365.181 231.9 361.861 232.541 358.893 233.934C356.874 234.882 352.68 238.049 350.44 237.479C348.272 236.926 345.062 233.248 343.678 231.601C341.908 229.495 340.444 227.055 338.875 224.79C338.324 223.994 337.2 222.765 337.057 221.744C336.808 219.971 337.518 220.55 339.213 220.748C343.57 221.259 347.667 222.067 351.843 223.438C353.921 224.12 357.984 226.879 360.062 225.225C363.235 222.701 358.414 218.362 356.648 216.905C353.64 214.421 350.142 212.577 346.934 210.37C343.527 208.025 339.022 205.528 336.829 201.917C343.232 203.806 349.629 205.97 355.846 208.406C358.69 209.52 361.501 210.697 364.172 212.179C365.672 213.011 368.704 215.261 370.511 214.184C374.439 211.84 365.418 205.035 364.116 203.644C362.093 201.482 360.112 199.342 357.889 197.381C356.389 196.058 354.033 195.128 353.336 193.177C355.825 194.077 357.837 195.841 360.168 197.04C361.389 197.668 362.502 198.029 363.85 198.221C365.286 198.427 365.458 198.656 366.59 199.227C367.471 199.672 368.377 200.267 369.367 200.569C370.072 200.785 371.304 200.823 371.921 201.222C372.236 201.672 372.561 202.113 372.897 202.547C373.273 202.658 373.643 202.785 374.008 202.93C374.555 203.417 374.879 204.089 375.411 204.592C379.272 208.24 384.435 210.851 388.763 213.908C392.858 216.8 397.203 219.416 401.136 222.571C405.661 226.204 410.358 230.108 414.208 234.464C416.383 236.925 418.172 239.716 419.999 242.438C421.322 244.409 423.246 246.044 424.39 248.076C426.884 252.507 428.953 257.297 431.637 261.656C434.373 266.098 437.936 270.512 438.347 275.919ZM401.559 301.627C402.305 298.552 406.512 294.962 409.201 293.606C407.846 296.957 404.235 299.241 401.559 301.627ZM408.497 312.354C406.204 317.109 396.12 317.653 397.488 310.616C398.158 307.168 401.003 305.052 403.446 302.796C404.575 301.753 407.34 298.023 409.088 298.624C409.006 301.306 408.848 303.999 408.854 306.681C408.857 308.472 409.308 310.671 408.497 312.354ZM405.582 257.544C406.513 259.633 407.44 261.372 405.713 263.24C404.935 264.084 402.396 265.929 401.248 265.519C397.562 264.205 404.59 258.484 405.582 257.544ZM383.288 238.961C384.176 238.913 385.038 239.045 385.915 238.991C386.789 238.936 386.881 238.781 387.691 238.892C387.777 239.016 387.862 239.14 387.947 239.265C388.058 240.098 388.496 240.188 389.26 239.537C390.324 239.773 391.016 239.931 392.033 240.505C389.288 242.483 385.947 244.783 382.582 245.447C377.264 246.496 378.733 239.212 383.288 238.961ZM301.753 283.442C301.201 284.551 299.615 281.78 299.223 281.264C299.954 281.262 302.31 282.323 301.753 283.442ZM344.487 254.255C348.619 251.845 353.527 249.729 357.965 247.935C358.745 251.692 354.939 256.544 352.595 259.115C350.7 261.194 348.414 263.351 345.844 264.548C343.066 265.842 340.029 265.273 340.163 261.643C340.213 260.316 340.515 258.181 341.056 256.968C341.753 255.405 343.07 255.08 344.487 254.255ZM288.629 185.9C289.244 185.864 295.925 185 295.889 185.831C295.784 188.328 289.299 186.368 288.629 185.9ZM241.384 234.116C244.913 229.765 250.61 225.068 250.693 218.986C250.816 210.037 240.879 214.502 235.882 214.874C238.525 212.28 251.8 201.397 243.948 197.531C241.69 196.42 238.483 197.506 236.218 198.088C232.199 199.121 228.463 200.909 224.516 202.154C227.336 199.153 232.21 195.742 232.05 191.198C231.855 185.665 227.311 187.003 223.382 187.815C221.872 188.127 215.127 190.808 213.86 188.988C213.396 188.321 214.147 187.473 214.306 186.88C214.587 185.829 214.5 185.462 214.51 184.389C214.529 182.224 215.969 179.443 214.795 177.429C214.526 177.887 214.296 178.363 214.105 178.858C213.718 177.686 213.978 176.443 213.591 175.271C223.4 177.778 233.379 179.15 243.249 181.29C248.246 182.374 252.949 184.239 258.014 185.079C263.123 185.925 268.143 187.221 273.261 188.028C277.931 188.764 282.404 189.99 287.029 190.93C291.536 191.847 296.16 189.838 300.559 188.821C310.414 186.543 320.265 184.21 330.133 181.999C341.52 179.448 353.365 177.267 364.264 173.011C364.475 178.683 364.929 184.343 365.623 189.976C360.809 187.702 353.666 184.736 348.8 188.806C346.852 190.434 346.252 193.245 347.022 195.635C347.86 198.238 350.426 199.447 352.119 201.406C346.966 200.085 333.672 190.776 331.305 200.186C329.634 206.832 337.786 211.125 341.773 214.865C337.814 214.091 332.513 210.928 330.188 216.011C328.179 220.406 330.599 225.188 333.077 228.813C334.421 230.777 335.931 232.625 337.359 234.528C338.114 235.534 338.851 236.555 339.644 237.532C340.44 238.512 341.941 239.538 342.499 240.592C343.621 242.718 341.356 242.849 339.594 243.617C337.394 244.576 335.505 246.187 333.494 247.47C328.887 250.41 324.861 253.14 319.417 254.08C313.813 255.046 308.416 256.056 302.886 257.405C297.372 258.75 292.871 260.042 287.236 258.304C284.666 257.512 282.573 256.807 279.848 256.956C276.985 257.113 275.312 256.965 272.958 255.192C262.83 247.569 251.837 241.313 241.384 234.116ZM223.126 226.463C227.04 224.5 230.98 222.528 235.023 220.841C238.37 219.445 243.452 217.818 247.116 218.43C246.083 221.081 244.198 223.257 242.177 225.209C240.389 226.936 238.156 229.542 235.992 230.747C234.028 231.841 231.742 230.108 229.805 229.382C227.676 228.585 224.747 228.213 223.126 226.463ZM224.109 236.365C226.06 235.555 230.252 238.273 232.026 238.98C235.512 240.37 239.018 241.821 242.091 244.013C238.339 248.346 234.09 252.308 229.041 255.091C225.719 256.923 220.121 259.023 216.987 255.698C213.051 251.52 217.783 243.006 220.57 239.425C220.662 240.038 220.755 240.65 220.848 241.263C221.737 239.84 222.416 237.069 224.109 236.365ZM295.718 273.453C293.285 273.965 292.458 273.503 290.851 271.638C289.765 270.377 288.698 269.068 287.474 267.934C286.224 266.778 283.138 263.988 287.07 265.594C290.654 267.058 293.724 267.79 297.667 267.216C302.176 266.561 306.379 264.656 310.824 263.692C308.387 265.823 305.968 267.975 303.526 270.1C300.947 272.346 298.996 272.763 295.718 273.453ZM296.274 290.593C290.942 294.604 280.206 294.17 283.819 285.345C284.368 284.005 285.136 282.743 286.025 281.602C286.321 281.22 286.848 280.43 287.27 280.174C288.45 279.459 288.123 279.373 289.257 280.565C290.235 281.593 297.881 289.995 296.274 290.593ZM294.693 275.259C295.182 275.101 297.24 273.908 297.709 274.568C298.184 275.236 294.148 277.547 294.693 275.259ZM333.516 336.43C332.317 339.297 322.721 343.448 324.509 337.668C325.3 335.108 326.047 333.169 329.034 332.975C330.758 332.863 334.572 333.905 333.516 336.43ZM350.73 297.572C352.31 295.273 357.526 292.164 359.754 295.593C360.827 297.244 358.223 298.091 356.648 297.666C355.802 297.437 355.111 296.932 354.191 296.894C353.01 296.846 351.854 297.773 350.73 297.572ZM354.918 299.854C353.844 300.941 347.365 306.389 346.315 305.549C348.431 302.526 350.861 299.15 354.918 299.854ZM344.337 354.99C342.087 355.117 343.21 351.729 343.428 350.374C343.973 351.318 346.836 354.848 344.337 354.99ZM350.053 348.917C349.325 347.622 347.364 345.696 347.808 344.031C348.147 342.758 351.208 341.046 352.489 341.776C354.191 342.747 351.724 349.131 350.053 348.917ZM403.435 335.345C402.472 338.659 401.475 337.803 398.458 338.446C395.43 339.09 393.337 341.659 390.672 343.037C391.598 341.081 392.172 338.697 393.722 337.11C394.08 336.743 396.277 336.019 395.026 335.17C393.931 334.428 392.358 336.837 391.889 337.493C389.58 340.723 387.966 344.668 386.633 348.385C385.977 350.211 385.452 352.07 385.142 353.987C384.865 355.696 385.163 357.483 384.881 359.147C384.427 361.827 380.786 361.841 378.595 362.532C376.612 363.157 374.638 363.835 372.58 364.172C370.796 364.464 368.945 363.932 367.215 364.284C365.343 364.664 364.502 365.774 362.373 365.523C360.638 365.319 359.015 364.521 357.256 364.441C355.61 364.367 353.968 364.936 352.333 364.473C350.681 364.006 350.761 363.825 351.137 362.203C351.371 362.641 351.607 363.078 351.842 363.515C352.5 363 352.955 361.427 353.358 360.689C353.984 359.545 354.493 359.15 354.262 357.725C353.92 355.621 352.022 354.125 351.592 352.124C351.143 350.036 352.687 348.328 353.6 346.585C354.848 344.199 354.832 342.43 353.786 339.962C354.574 340.171 355.363 340.379 356.152 340.587C355.071 338.242 351.404 339.192 349.566 339.887C348.642 340.236 347.177 341.609 346.183 341.574C344.817 341.526 344.104 339.731 343.517 338.742C341.818 335.882 339.878 333.057 337.868 330.401C337.316 329.671 336.591 329.201 336.782 328.369C336.945 327.663 338.529 326.661 339.044 326.226C340.972 324.597 343.425 323.694 345.236 321.979C347.973 319.388 351.128 317.531 353.926 314.991C356.841 312.345 359.844 309.914 362.882 307.413C365.958 304.881 368.624 301.896 371.678 299.338C372.469 300.771 374.002 305.903 375.756 306.301C377.8 306.763 377.739 304.346 377.638 302.891C377.493 300.818 376.341 298.804 376.213 296.825C376.075 294.709 378.112 293.763 379.65 292.539C382.025 290.648 387.281 286.34 384.456 282.795C382.022 279.742 374.107 285.597 371.925 287.357C370.071 288.853 368.639 290.206 366.551 291.386C365.084 292.215 362.621 295.405 360.881 295.11C358.812 294.76 358.003 292.501 355.471 292.576C352.997 292.648 350.895 294.429 349.361 296.217C345.893 300.259 344.701 305.667 341.54 309.881C339.982 311.958 337.961 313.673 336.27 315.638C334.414 317.795 334.02 320.281 332.189 322.392C326.951 315.418 321.245 308.814 315.721 302.069C312.963 298.701 310.261 295.293 307.562 291.877C306.55 290.597 305.409 289.396 304.483 288.051C303.214 286.21 303.443 284.731 302.944 282.677C302.724 281.767 301.69 280.677 301.966 279.807C302.339 278.638 304.954 277.72 305.897 277.242C309.747 275.289 313.24 272.847 316.83 270.46C323.479 266.041 330.205 261.897 337.277 258.123C337.155 259.749 336.096 261.434 336.807 263.066C337.138 262.128 337.663 257.946 338.917 257.766C338.677 257.801 338.874 263.129 339.068 263.889C339.647 266.159 341.326 267.711 343.728 267.696C348.304 267.666 352.405 262.692 354.945 259.397C356.664 257.166 358.316 254.571 358.921 251.779C359.465 249.272 358.867 247.528 361.474 246.255C366.825 243.643 372.219 241.515 377.941 240.13C377.685 242.594 376.97 245.628 379.211 247.401C381.685 249.358 384.923 247.614 387.252 246.32C389.56 245.038 393.117 241.516 395.827 242.539C398.493 243.545 400.348 246.886 401.841 249.105C403.155 251.06 404.587 252.471 403.064 254.65C401.357 257.093 400.246 259.477 398.879 262.13C398.353 263.15 397.852 263.816 398.223 264.861C398.344 265.2 399.714 267.219 400.086 267.509C402.46 269.355 405.666 265.843 407.361 264.509C407.959 270.251 408.092 275.967 408.334 281.727C408.51 285.945 410.144 290.098 406.681 293.182C403.218 296.265 400.328 299.429 398.217 303.604C397.09 305.833 396.079 308.122 394.859 310.306C394.044 311.764 392.326 313.904 393.378 315.621C394.487 314.569 394.818 312.968 395.742 311.782C396.296 314.244 396.854 316.977 399.46 318.021C402.459 319.222 405.44 317.144 408.097 315.987C407.144 322.572 405.287 328.97 403.435 335.345ZM400.369 342.913C398.311 347.31 396.452 352.611 392.651 355.848C391.816 356.559 388.27 359.334 386.921 358.869C385.775 358.474 386.406 356.161 386.605 355.17C387.618 350.138 389.37 346.973 393.452 343.763C395.142 342.434 397.311 340.736 399.489 340.408C401.835 340.055 401.159 341.224 400.369 342.913ZM458.427 447.273C453.09 440.02 445.548 434.384 438.42 428.935C435.191 426.467 431.633 424.616 428.371 422.148C424.683 419.357 420.937 416.664 416.807 414.561C408.974 410.572 400.43 407.792 393.039 403.076C389.435 400.775 385.492 398.553 382.103 395.97C380.614 394.836 379.299 393.385 377.954 392.086C376.705 390.878 374.021 389.126 373.524 387.359C375.604 387.019 376.787 385.002 378.643 384.796C379.254 384.728 383.086 385.741 382.562 383.884C383.952 383.849 384.114 383.828 385.279 383.524C385.761 383.398 386.333 383.595 386.821 383.422C387.567 383.159 388.075 382.399 388.828 382.107C389.364 381.9 391.353 382.132 391.655 381.874C392.478 381.171 391.603 381.233 391.112 380.355C392.712 380.314 393.811 381.122 395.416 380.263C395.904 380.001 396.318 379.398 396.791 379.086C397.631 378.531 397.934 379.391 398.509 378.239C399.047 379.828 399.032 379.388 400.329 378.921C401.621 378.456 402.554 378.12 404.026 378.003C407.54 377.726 411.068 378.152 414.567 377.902C415.847 377.811 416.94 377.52 418.212 377.688C419.332 377.835 418.994 378.613 419.925 377.565C420.142 377.321 419.442 376.654 419.777 376.304C419.925 376.149 420.407 376.258 420.59 376.179C422.225 375.465 422.233 376.462 422.523 377.761C423.482 377.536 424.461 377.333 425.294 376.771C424.873 376.395 424.169 375.981 424.576 375.295C425.959 375.819 426.863 375.577 426.172 377.095C427.564 377.554 427.824 376.955 429.075 376.824C429.814 376.746 430.846 377.205 431.462 376.615C432.135 375.97 431.074 375.27 432.31 374.716C432.563 374.845 432.751 375.04 432.874 375.299C433.541 375.501 433.421 375.764 432.513 376.087C434.944 377.346 434.373 375.939 435.393 374.45C435.629 374.107 436.685 373.04 437.166 373.556C437.895 374.336 436.406 374.584 436.725 375.361C437.279 376.707 439.209 374.982 439.802 374.3C440.25 373.785 440.433 372.797 440.917 372.412C441.588 371.878 442.554 372.704 443.394 372.556C447.234 371.883 450.861 366.723 447.968 363.269C447.191 362.341 446.533 362.526 445.606 361.94C444.69 361.361 444.177 360.359 443.442 359.532C441.764 357.644 439.71 356.229 437.364 355.325C431.922 353.227 426.059 351.697 420.345 350.571C417.699 350.049 414.882 349.251 412.173 349.257C410.577 349.26 408.173 350.501 406.681 349.907C403.78 348.751 408.039 342.837 408.742 340.926C410.806 335.314 412.364 329.33 413.385 323.438C413.585 322.285 413.508 320.791 413.924 319.692C414.401 318.429 414.503 318.608 415.524 318.505C417.369 318.319 419.386 319.286 421.307 318.951C423.436 318.581 425.737 318.753 427.886 318.095C428.874 317.793 429.789 317.464 430.44 316.631C430.645 316.37 430.417 316.142 430.546 315.959C430.586 315.901 431.321 315.11 431.345 315.064C431.338 314.654 431.373 314.247 431.452 313.845C432.197 314.463 431.829 315.759 433.085 315.789C433.309 314.407 433.311 314.129 434.218 313.351C434.149 313.411 434.902 312.771 434.806 312.84C434.851 312.594 434.942 312.363 435.076 312.151C435.501 311.946 435.949 311.837 436.421 311.825C437.401 310.817 436.994 310.279 436.994 308.922C437.786 309.333 438.577 309.744 439.369 310.155C439.561 306.134 442.01 303.933 443.637 300.675C444.331 299.286 445.037 298.201 445.203 296.527C445.299 295.56 445.049 294.708 445.449 293.798C445.812 292.972 446.625 292.526 446.964 291.626C447.632 289.855 447.134 287.595 447.17 285.756C447.221 283.205 447.476 280.663 447.559 278.114C447.723 273.11 447.219 267.967 446.47 263.02C446.112 260.655 445.513 258.359 445.042 256.018C444.655 254.094 443.728 252.289 443.397 250.499C443.26 249.755 443.472 249.088 443.248 248.265C442.952 247.184 442.458 246.12 442.09 245.058C441.232 242.578 440.383 240.101 439.417 237.659C437.546 232.926 435.356 228.334 433.275 223.693C431.273 219.229 429.615 214.626 427.022 210.458C424.469 206.353 421.719 202.316 418.904 198.386C415.972 194.294 412.266 190.777 409.423 186.647C404.084 178.891 396.638 172.501 388.848 167.224C372.773 156.334 355.401 145.462 336.125 141.728C333.22 141.166 330.277 140.775 327.317 140.703C325.48 140.657 322.436 141.545 320.697 140.923C318.749 140.227 318.927 138.04 318.439 136.325C317.812 134.12 316.397 132.675 314.791 131.117C313.1 129.476 311.566 127.559 309.457 126.443C307.32 125.313 304.799 124.891 302.431 124.549C300.317 124.243 297.158 124.529 295.227 123.608C293.468 122.769 294.336 121.895 295.983 122.614C296.104 121.888 296.202 121.419 296.667 120.858C296.901 120.576 298.005 120.18 298.032 119.917C298.063 119.609 297.137 118.731 297.004 118.334C296.719 117.478 296.881 116.293 297.22 115.49C298.88 116.966 299.362 117.619 301.215 116.209C301.999 115.613 302.239 115.351 303.146 115.05C303.392 114.969 303.943 115.221 304.158 115.079C304.977 114.54 304.223 114.667 304.613 114.03C304.515 114.191 305.203 112.496 305.171 112.851C305.254 111.948 305.521 112.226 304.976 111.117C303.908 108.948 301.189 108.859 302.575 106.384C303.12 105.41 303.6 105.507 303.754 104.095C303.836 103.336 303.734 102.465 303.73 101.693C303.724 100.113 304.021 99.0077 302.54 98.2035C301.117 97.43 299.804 98.2786 299.227 96.3603C298.621 94.3475 299.231 91.7669 297.049 90.3885C295.455 89.3815 293.153 90.2425 291.391 89.7499C289.626 89.2567 288.002 87.4514 286.21 88.8375C284.938 89.8226 284.262 92.2447 281.863 90.9349C280.781 90.3442 280.185 88.3609 279.502 87.2486C278.414 85.4758 277.542 84.8354 275.869 86.5621C274.837 87.6271 272.661 90.2194 272.528 91.6936C272.382 93.3209 273.803 94.0009 272.019 94.9636C270.245 95.9216 269.25 95.2191 267.809 97.1633C266.381 99.0922 267.487 100.158 265.832 102.003C263.763 104.31 262.662 105.306 262.691 108.414C262.712 110.546 260.827 112.387 261.926 114.409C263.158 116.676 266.754 117.618 268.934 118.541C268.207 119.885 267.208 120.747 268.058 122.13C268.827 123.383 271.003 123.643 272.352 123.416C273.258 123.263 273.291 123.4 274.005 122.763C274.473 122.345 273.831 121.825 274.794 121.593C275.82 121.346 277.457 123.354 278.122 123.856C276.635 125.786 272.549 126.147 270.388 127.125C269.07 127.721 267.86 128.603 266.518 129.137C265.302 129.621 263.821 129.508 262.717 130.257C260.812 131.549 260.019 134.752 258.852 136.635C257.53 138.766 256.248 139.756 253.712 140.198C250.548 140.75 248 140.972 245.049 142.349C241.446 144.031 237.894 145.806 234.355 147.619C228.646 150.543 223.344 153.545 218.043 157.082C212.498 160.782 207.104 164.645 201.753 168.511C196.461 172.335 192.018 177.04 187.42 181.665C183.704 185.403 180.443 189.438 176.741 193.176C172.371 197.589 169.157 203.158 165.105 207.84C162.888 210.401 160.766 212.919 159.375 215.936C158.248 218.382 156.287 220.782 154.979 223.347C153.306 226.628 151.723 229.856 149.846 233.028C149.076 234.329 148.16 235.446 147.347 236.689C146.305 238.28 146.367 239.817 146.086 241.651C145.794 241.203 145.502 240.756 145.209 240.309C144.679 241.467 144.037 242.606 143.578 243.791C143.285 244.547 143.331 245.621 143.036 246.283C142.667 247.114 142.217 247.003 141.757 247.695C141.264 248.435 141.106 249.429 140.587 250.222C138.343 253.652 137.48 258.004 136.327 261.918C134.78 267.168 135.025 273.202 135.109 278.616C135.198 284.334 135.511 290.052 136.371 295.71C137.15 300.834 138.816 305.748 141.424 310.241C143.697 314.156 146.831 316.437 150.845 318.442C152.688 319.363 154.399 319.079 156.334 319.226C158.454 319.387 159.899 319.962 162.142 319.456C163.217 319.213 163.727 318.43 164.581 318.169C165.111 318.008 165.395 318.271 165.903 318.21C166.63 318.122 168.141 317.766 168.929 317.852C171.381 318.119 170.969 321.823 171.21 323.715C171.582 326.629 171.854 329.573 172.354 332.469C173.407 338.558 175.68 344.247 177.024 350.231C170.797 350.99 165.456 352.151 159.621 354.507C153.766 356.869 147.847 357.671 141.686 358.845C135.921 359.944 130.377 361.997 125.763 365.716C123.601 367.459 121.354 369.498 122.942 372.368C123.958 374.204 125.788 374.67 127.369 375.737C127.688 375.333 126.764 374.477 126.595 374.24C127.924 374.513 127.883 375.133 128.853 375.672C129.701 376.143 130.395 376.127 131.323 376.46C133.589 377.273 134.702 379.303 136.942 379.873C137.647 380.052 138.569 380.481 139.289 380.603C140.155 380.749 140.803 380.371 141.68 380.531C142.154 380.842 142.666 381.065 143.216 381.199C143.577 381.032 143.933 380.855 144.284 380.669C145.545 380.799 146.323 381.592 147.347 382.243C147.416 381.422 147.317 380.57 148.094 380.035C148.397 380.833 147.907 381.338 148.735 381.887C149.784 382.583 151.161 381.714 152.1 381.274C152.366 383.925 158.507 383.769 160.454 383.731C163.15 383.679 165.842 382.61 168.562 383.207C169.949 383.51 171.43 383.828 172.811 384.223C174.474 384.698 176.485 385.122 178.122 385.721C178.773 385.96 179.571 386.723 180.263 386.672C180.815 386.63 180.963 385.817 181.605 385.84C182.331 385.867 182.576 386.676 183.205 386.919C184.146 387.283 185.011 386.591 185.906 386.941C186.227 387.066 186.663 387.605 187.075 387.78C187.699 388.047 188.936 388.05 189.631 388.178C190.616 388.361 191.499 388.238 192.343 388.298C193.024 388.348 193.01 388.805 193.335 388.835C193.709 388.868 194.36 387.584 194.862 387.396C195.593 387.122 196.92 387.775 197.666 387.89C192.264 395.209 185.75 401.677 178.689 407.341C171.073 413.451 163.274 419.553 155.106 424.912C147.691 429.778 140.513 433.987 134.763 440.855C129.915 446.647 122.199 452.844 123.388 461.239C124.577 469.627 133.69 473.041 140.993 474.642C150.177 476.656 159.631 475.846 168.84 476.978C172.768 477.461 177.131 477.203 181.085 476.792C185.754 476.306 189.756 473.261 193.77 471.058C200.99 467.097 207.163 461.797 214.275 457.712C223.18 452.597 231.991 447.178 241.754 443.752C246.295 442.159 250.971 440.34 254.635 437.062C255.18 436.574 255.586 435.838 256.202 435.436C257.249 434.753 257.53 435.445 258.137 435.238C258.605 435.079 259.058 434.574 259.462 434.423C260.487 434.039 260.944 434.198 262.091 434.198C261.106 433.631 260.205 432.168 261.227 430.977C262.976 428.935 263.278 432.197 263.935 432.953C264.492 432.237 264.279 431.601 264.136 430.787C264.607 431.098 265.078 431.408 265.549 431.719C265.225 430.146 265.533 428.697 266.367 427.325C267.137 426.062 267.326 426.24 267.539 424.488C269.928 426.668 270.395 421.377 270.61 419.448C270.818 417.578 270.612 416.235 271.843 414.599C273.164 412.843 275.174 411.733 276.851 410.369C279.501 408.213 282.416 405.491 286.08 407.558C288.973 409.19 290.547 413.192 293.261 415.248C294.907 416.496 296.644 416.622 297.694 418.556C298.542 420.119 298.818 421.991 299.619 423.596C301.559 427.488 304.352 431.941 307.539 434.926C310.505 437.705 314.313 437.691 317.784 439.414C321.22 441.12 324.79 442.969 328.428 444.205C332.4 445.556 336.684 446.13 340.551 447.766C342.541 448.608 344.32 449.875 346.327 450.681C348.491 451.55 350.771 452.163 352.965 452.959C361.655 456.113 370.159 459.982 379.288 461.73C383.337 462.506 387.086 464.612 391.165 465.056C392.914 465.246 394.341 465.487 396.053 465.925C398.739 466.61 398.17 466.975 399.16 469.213C400.788 472.898 404.763 470.716 407.827 470.808C412.732 470.956 417.562 470.164 422.458 470.126C431.022 470.06 439.268 469.096 447.553 466.286C455.87 463.465 465.339 456.666 458.427 447.273Z" fill="black"/>
<path fill-rule="evenodd" clip-rule="evenodd" d="M359.434 159.391C359.551 159.509 359.828 159.58 359.434 159.391V159.391Z" fill="black"/>
<path fill-rule="evenodd" clip-rule="evenodd" d="M208.583 316.322C210.444 314.439 218.358 314.819 218.956 318.189C219.623 321.951 212.551 327.632 209.963 329.225C206.633 331.275 202.568 331.659 203.158 326.512C203.605 322.625 205.935 319.005 208.583 316.322ZM215.119 312.444C215.36 313.486 213.582 313.132 213.092 312.885C212.861 312.411 214.878 311.398 215.119 312.444ZM201.472 319.342C203.051 319.484 204.859 316.953 206.05 316.091C206.576 316.904 203.105 321.374 202.723 322.393C201.77 324.941 201.239 328.161 202.539 330.702C206.339 338.13 216.064 327.523 218.496 323.819C220.197 321.228 221.376 318.015 218.972 315.476C218.116 314.571 216.702 314.32 215.907 313.461C214.861 312.33 215.685 310.871 213.581 311.117C212.129 311.288 210.386 312.597 208.975 313.07C207.274 313.641 205.744 314.232 204.26 315.29C203.925 315.528 199.522 319.167 201.472 319.342Z" fill="black"/>
<path fill-rule="evenodd" clip-rule="evenodd" d="M313.032 321.834C312.04 326.937 306.981 332.171 301.657 332.375C296.355 332.577 294.639 327.025 295.575 322.601C296.373 318.827 299.636 312.271 304.292 312.993C307.953 313.561 313.882 317.46 313.032 321.834ZM309.656 313.305C306.295 310.706 301.651 309.503 297.754 311.565C296.477 312.241 291.378 315.224 292.93 317.243C295.022 315.623 296.828 313.375 299.547 312.835C299.089 314.942 296.478 316.837 295.558 318.888C294.483 321.284 293.894 324.027 294.071 326.66C294.384 331.347 297.525 334.988 302.388 334.344C306.84 333.754 310.732 330.344 312.856 326.51C315.691 321.39 314.094 316.737 309.656 313.305Z" fill="black"/>
<path fill-rule="evenodd" clip-rule="evenodd" d="M278.44 333.435C276.047 336.977 272.397 340.308 268.178 341.402C262.716 342.818 264.25 338.306 265.883 335.069C267.326 332.206 269.802 327.282 273.573 327.308C274.852 327.316 277.236 327.935 278.357 328.619C280.568 329.967 279.7 331.571 278.44 333.435ZM273.342 325.651C274.201 324.695 278.004 320.596 278.514 323.791C279.606 322.525 278.744 321.475 277.347 321.342C275.66 321.181 273.816 323.058 272.599 323.99C270.093 325.909 268.165 327.874 266.505 330.564C264.675 333.53 260.008 340.232 264.092 343.175C268.507 346.356 274.933 340.482 277.697 337.452C279.465 335.514 281.806 332.669 281.134 329.827C280.308 326.336 276.246 325.97 273.342 325.651Z" fill="black"/>
<path fill-rule="evenodd" clip-rule="evenodd" d="M254.505 268.573C252.035 271.39 247.017 275.494 242.882 275.011C239.11 274.57 240.582 270.339 241.917 268.292C243.922 265.215 246.608 262.326 250.49 262.157C252.165 262.085 254.336 262.119 255.634 263.387C257.406 265.119 255.81 267.085 254.505 268.573ZM254.243 260.746C251.349 259.747 250.212 259.366 247.399 260.955C245.141 262.23 243.138 264.034 241.588 266.081C239.268 269.146 236.929 276.039 242.885 276.902C249.418 277.848 264.958 264.449 254.243 260.746Z" fill="black"/>
<path fill-rule="evenodd" clip-rule="evenodd" d="M263.147 278.336C261.268 280.254 258.921 281.82 256.243 282.354C257.376 279.828 259.906 274.308 262.905 273.539C264.287 273.185 265.862 273.649 265.749 275.222C265.667 276.36 263.888 277.578 263.147 278.336ZM265.566 271.658C264.01 270.878 264.501 270.346 262.69 270.957C261.264 271.438 259.464 272.274 258.276 273.237C257.628 273.763 255.61 275.626 255.857 276.574C256.304 278.297 257.81 275.657 258.205 275.149C258.883 275.701 255.416 280.661 255.209 281.477C254.44 284.516 256.827 284.838 259.167 283.843C262.322 282.503 271.664 274.711 265.566 271.658Z" fill="black"/>
<path fill-rule="evenodd" clip-rule="evenodd" d="M311.821 353.439C312.054 351.424 312.385 349.294 314.235 348.162C315.903 347.142 317.629 347.29 317.876 349.382C318.105 351.324 316.201 354.774 314.661 355.834C312.516 357.31 312.102 355.47 311.821 353.439ZM314.577 358.024C318.98 355.448 321.756 343.637 313.639 346.948C309.026 348.829 310.722 360.278 314.577 358.024Z" fill="black"/>
<path fill-rule="evenodd" clip-rule="evenodd" d="M276.967 309.046C277.661 307.624 278.456 307.152 279.864 306.529C278.925 307.415 277.966 308.234 276.967 309.046ZM277.983 305.541C276.986 306.541 274.7 308.066 275.02 309.784C275.312 311.352 276.51 311.262 277.597 310.773C279.877 309.749 281.145 305.266 283.529 304.846C280.885 303.171 280.267 303.249 277.983 305.541Z" fill="black"/>
<path fill-rule="evenodd" clip-rule="evenodd" d="M278.333 216.502C278.46 221.276 278.572 226.05 278.677 230.825C278.714 232.503 278.313 234.895 278.817 236.502C279.039 237.21 281.051 240.279 281.765 240.478C284.263 241.173 283.371 234.915 283.388 233.373C283.449 228.175 283.372 222.97 283.352 217.77C283.34 215.091 284.097 192.625 280.619 192.735C280.019 192.754 278.543 195.323 278.321 195.837C277.622 197.455 277.879 199.852 277.895 201.576C277.943 206.549 278.201 211.529 278.333 216.502Z" fill="black"/>
<path fill-rule="evenodd" clip-rule="evenodd" d="M299.394 230.421C299.59 231.741 299.487 233.942 300.974 234.626C302.268 235.221 302.764 234.513 303.248 233.407C304.36 230.863 303.959 226.972 303.938 224.341C303.897 219.127 303.31 213.935 302.904 208.74C302.725 206.461 303.096 204.171 302.811 201.786C302.686 200.74 302.561 196.529 300.62 196.725C298.864 196.902 299.022 201.315 298.927 202.452C298.131 211.917 297.993 220.973 299.394 230.421Z" fill="black"/>
<path fill-rule="evenodd" clip-rule="evenodd" d="M382.244 339.109C381.5 342.91 369.363 356.147 366.306 348.743C364.493 344.351 368.424 339.57 371.488 337.027C373.385 335.453 375.755 333.909 378.34 334.386C380.535 334.791 382.716 336.694 382.244 339.109ZM375.977 332.29C375.119 332.493 367.953 337.522 367.888 337.456C367.265 336.831 371.785 330.099 372.25 329.509C376.082 324.657 378.625 328.332 381.021 332.145C380.511 329.867 379.107 326.56 376.761 325.597C373.799 324.381 371.488 327.383 370.063 329.541C368.049 332.591 366.938 335.904 365.819 339.346C365.286 340.988 364.677 342.476 363.774 343.956C362.882 345.417 361.321 347.027 361.551 348.875C362.819 348.17 363.493 346.791 364.292 345.654C365.183 346.015 364.877 348.856 365.058 349.579C365.513 351.396 366.755 352.818 368.676 353.13C372.257 353.713 376.122 350.402 378.516 348.153C381.039 345.784 383.754 342.536 383.732 338.889C383.709 335.079 379.96 331.348 375.977 332.29Z" fill="black"/>
<path fill-rule="evenodd" clip-rule="evenodd" d="M385.684 271.208C383.652 274.316 380.087 278.041 376.316 278.762C373.547 279.292 371.721 277.242 372.833 274.473C373.772 272.133 376.973 270.656 379.071 269.627C380.735 268.81 388.495 266.908 385.684 271.208ZM384.189 266.126C380.028 265.969 376.671 268.976 373.568 271.375C374.269 268.619 375.854 265.62 378.086 263.825C381.124 261.383 384.004 262.9 387.201 264.121C386.412 261.632 382.871 260.738 380.615 261.089C377.762 261.534 375.711 263.967 374.269 266.322C372.549 269.131 371.959 272.441 369.934 275.075C369.007 276.281 363.265 280.794 364.566 282.638C366.71 280.363 368.855 278.088 371 275.812C371.556 278.501 372.169 281.564 375.604 281.302C378.348 281.093 381.477 278.762 383.483 276.981C386.074 274.679 391.173 266.39 384.189 266.126Z" fill="black"/>
<path fill-rule="evenodd" clip-rule="evenodd" d="M325.896 292.659C324.133 293.469 320.253 294.57 319.267 292.136C317.898 288.755 322.303 282.826 324.4 280.574C325.691 279.188 326.566 278.471 328.364 279.368C329.8 280.084 331.909 282.119 332.46 283.684C333.643 287.043 328.653 291.391 325.896 292.659ZM329.94 276.423C331.376 276.747 331.552 278.569 329.757 277.869C328.412 277.345 328.099 276.009 329.94 276.423ZM331.742 278.99C331.206 277.355 332.297 274.792 329.657 274.674C328.161 274.607 325.421 276.127 324.115 276.745C322.305 277.601 320.601 278.908 319.656 280.749C318.78 282.454 319.405 282.904 320.74 281.488C320.903 281.599 317.721 289.801 317.694 290.623C317.569 294.379 320.229 296.852 323.965 296.186C327.399 295.574 330.493 292.768 332.383 289.936C333.339 288.502 334.124 286.861 334.195 285.105C334.306 282.411 332.509 281.329 331.742 278.99Z" fill="black"/>
<path fill-rule="evenodd" clip-rule="evenodd" d="M348.212 277.612C346.763 274.824 350.12 270.131 353.126 271.504C359.384 274.362 350.113 281.268 348.212 277.612ZM353.834 273.972C353.162 273.999 348.917 275.638 349.541 276.749C350.399 278.274 353.498 274.585 353.834 273.972Z" fill="black"/>
<path fill-rule="evenodd" clip-rule="evenodd" d="M148.566 268.82C148.398 267.632 145.734 269.356 145.75 270.121C146.19 269.24 148.915 271.294 148.566 268.82Z" fill="black"/>
<path fill-rule="evenodd" clip-rule="evenodd" d="M294.236 179.078C297.627 178.829 293.307 161.731 290.835 163.243C288.157 164.882 291.124 179.306 294.236 179.078Z" fill="black"/>
<path fill-rule="evenodd" clip-rule="evenodd" d="M300.569 171.093C303.746 171.548 303.241 164.257 301.532 162.952C298.378 160.543 296.712 170.541 300.569 171.093Z" fill="black"/>
</svg>
