<svg width="24" height="24" viewBox="0 0 24 24" fill="none" xmlns="http://www.w3.org/2000/svg">
<path d="M15 18.5C12.495 18.5 10.32 17.08 9.235 15H15V13H8.585C8.535 12.675 8.5 12.34 8.5 12C8.5 11.66 8.535 11.325 8.585 11H15V9H9.235C10.32 6.92 12.49 5.5 15 5.5C16.615 5.5 18.09 6.09 19.225 7.065L21 5.3C19.41 3.875 17.305 3 15 3C11.085 3 7.76 5.505 6.525 9H3V11H6.06C6.02 11.33 6 11.66 6 12C6 12.34 6.02 12.67 6.06 13H3V15H6.525C7.76 18.495 11.085 21 15 21C17.305 21 19.41 20.125 21 18.7L19.225 16.93C18.09 17.905 16.615 18.5 15 18.5Z" fill="black"/>
</svg>
