<svg width="28" height="28" viewBox="0 0 28 28" fill="none" xmlns="http://www.w3.org/2000/svg">
<path d="M14 0C10.1941 0 9.71982 0.0183773 8.23039 0.0813852C6.73483 0.154894 5.7232 0.386798 4.83059 0.733342C3.90997 1.09389 3.12587 1.57257 2.3514 2.35142C1.57168 3.12589 1.08862 3.90999 0.733326 4.8306C0.386783 5.72322 0.154879 6.73484 0.0813699 8.2304C0.0139865 9.72071 -1.52588e-05 10.1941 -1.52588e-05 14C-1.52588e-05 17.8059 0.018362 18.2802 0.0813699 19.7696C0.154879 21.2608 0.386783 22.2768 0.733326 23.1694C1.09387 24.09 1.57256 24.8741 2.3514 25.6486C3.12587 26.4283 3.90997 26.9114 4.83059 27.2667C5.7232 27.6088 6.7392 27.8451 8.23039 27.9186C9.7207 27.986 10.1941 28 14 28C17.8058 28 18.2801 27.9816 19.7696 27.9186C21.2608 27.8451 22.2768 27.608 23.1694 27.2667C24.09 26.9061 24.8741 26.4274 25.6486 25.6486C26.4283 24.8741 26.9113 24.0944 27.2666 23.1694C27.6088 22.2768 27.8451 21.2608 27.9186 19.7696C27.986 18.2793 28 17.8059 28 14C28 10.1941 27.9816 9.71984 27.9186 8.2304C27.8451 6.73922 27.6079 5.71796 27.2666 4.8306C26.9061 3.90999 26.4274 3.12589 25.6486 2.35142C24.8741 1.5717 24.0944 1.08864 23.1694 0.733342C22.2768 0.386798 21.2608 0.154894 19.7696 0.0813852C18.2793 0.0140018 17.8058 0 14 0V0ZM14 2.52032C17.7376 2.52032 18.1839 2.53869 19.6611 2.6017C21.0236 2.66558 21.7657 2.89311 22.2584 3.08564C22.9156 3.34029 23.375 3.64133 23.8721 4.13314C24.3595 4.62058 24.6606 5.08526 24.9152 5.74247C25.1077 6.23515 25.3353 6.97725 25.3992 8.33979C25.4622 9.81698 25.4805 10.2642 25.4805 14.0009C25.4805 17.7376 25.4622 18.1848 25.3939 19.662C25.3204 21.0245 25.0929 21.7666 24.9012 22.2593C24.6361 22.9165 24.3403 23.3759 23.852 23.873C23.3593 24.3604 22.8902 24.6615 22.2383 24.9161C21.7517 25.1086 20.9991 25.3362 19.6313 25.4C18.1462 25.4631 17.7087 25.4814 13.9615 25.4814C10.2143 25.4814 9.77758 25.4631 8.29077 25.3948C6.92823 25.3213 6.17651 25.0938 5.68382 24.9021C5.01874 24.637 4.5628 24.3412 4.07449 23.8529C3.58181 23.3602 3.26852 22.8911 3.02699 22.2392C2.83096 21.7526 2.60694 21 2.5343 19.6322C2.48442 18.1646 2.46079 17.7096 2.46079 13.9799C2.46079 10.2519 2.48442 9.79597 2.5343 8.31004C2.60694 6.94224 2.83096 6.1914 3.02699 5.70309C3.26852 5.03713 3.58268 4.58207 4.07449 4.08939C4.56193 3.60195 5.01874 3.28691 5.68382 3.04013C6.17651 2.84848 6.90985 2.62095 8.27764 2.55269C9.7627 2.49931 10.2003 2.48006 13.9422 2.48006L14 2.52032ZM14 6.81448C10.0261 6.81448 6.81271 10.0323 6.81271 14.0017C6.81271 17.9756 10.0305 21.189 14 21.189C17.9739 21.189 21.1873 17.9712 21.1873 14.0017C21.1873 10.0279 17.9695 6.81448 14 6.81448ZM14 18.6687C11.4202 18.6687 9.33303 16.5816 9.33303 14.0017C9.33303 11.4219 11.4202 9.33479 14 9.33479C16.5798 9.33479 18.6669 11.4219 18.6669 14.0017C18.6669 16.5816 16.5798 18.6687 14 18.6687ZM23.1571 6.52744C23.1571 7.45768 22.4002 8.20853 21.4743 8.20853C20.5441 8.20853 19.7932 7.45681 19.7932 6.52744C19.7932 5.60245 20.5493 4.84986 21.4743 4.84986C22.3993 4.84986 23.1571 5.60245 23.1571 6.52744Z" fill="#121212"/>
</svg>
