<svg width="20" height="20" viewBox="0 0 20 20" fill="none" xmlns="http://www.w3.org/2000/svg">
<path d="M9.99616 1.66797C5.39199 1.66797 1.66699 5.39714 1.66699 10.0013C1.66699 14.6055 5.39199 18.3346 9.99616 18.3346C14.6003 18.3346 18.3337 14.6055 18.3337 10.0013C18.3337 5.39714 14.6003 1.66797 9.99616 1.66797ZM15.767 6.66797H13.3087C13.0378 5.6263 12.6587 4.6263 12.1587 3.7013C13.692 4.2263 14.967 5.2888 15.767 6.66797ZM10.0003 3.3638C10.6962 4.3638 11.2378 5.4763 11.592 6.66797H8.40866C8.76283 5.4763 9.30449 4.3638 10.0003 3.3638ZM3.55033 11.668C3.41283 11.1346 3.33366 10.5763 3.33366 10.0013C3.33366 9.4263 3.41283 8.86797 3.55033 8.33464H6.36283C6.29616 8.88047 6.25033 9.43464 6.25033 10.0013C6.25033 10.568 6.29616 11.1221 6.36699 11.668H3.55033ZM4.22949 13.3346H6.68783C6.95866 14.3763 7.33783 15.3763 7.83783 16.3055C6.30449 15.7805 5.02949 14.7138 4.22949 13.3346ZM6.68783 6.66797H4.22949C5.02949 5.2888 6.30449 4.22214 7.83783 3.69714C7.33783 4.6263 6.95866 5.6263 6.68783 6.66797ZM10.0003 16.6388C9.30866 15.6388 8.76699 14.5263 8.40866 13.3346H11.592C11.2337 14.5263 10.692 15.6388 10.0003 16.6388ZM11.9503 11.668H8.05033C7.97116 11.1221 7.91699 10.568 7.91699 10.0013C7.91699 9.43464 7.97116 8.88047 8.05033 8.33464H11.9503C12.0295 8.88047 12.0837 9.43464 12.0837 10.0013C12.0837 10.568 12.0295 11.1221 11.9503 11.668ZM12.1628 16.3013C12.6628 15.3721 13.042 14.3763 13.3128 13.3346H15.7712C14.967 14.7138 13.692 15.7763 12.1628 16.3013ZM13.6337 11.668C13.7003 11.1221 13.7503 10.568 13.7503 10.0013C13.7503 9.43464 13.7045 8.88047 13.6337 8.33464H16.4462C16.5837 8.86797 16.667 9.4263 16.667 10.0013C16.667 10.5763 16.5878 11.1346 16.4462 11.668H13.6337Z" fill="#121212"/>
</svg>
