<svg width="56" height="56" viewBox="0 0 56 56" fill="none" xmlns="http://www.w3.org/2000/svg">
<path d="M16.984 32H18.184V28.832H20.104C22.012 28.832 23.104 27.812 23.104 26.204C23.104 24.62 22.06 23.6 20.116 23.6H16.984V32ZM18.184 27.788V24.632H20.032C21.22 24.632 21.868 25.268 21.868 26.216C21.868 27.176 21.232 27.788 20.032 27.788H18.184ZM24.8937 32H27.5217C30.2217 32 31.9497 30.464 31.9497 27.752C31.9497 24.944 30.2337 23.6 27.5337 23.6H24.8937V32ZM26.0937 30.968V24.632H27.4017C29.6217 24.632 30.7017 25.772 30.7017 27.752C30.7017 29.732 29.6217 30.968 27.4017 30.968H26.0937ZM39.0164 28.28V27.248H35.1284V24.632H39.3644V23.6H33.9284V32H35.1284V28.28H39.0164Z" fill="black"/>
<rect x="0.5" y="0.5" width="55" height="55" rx="27.5" stroke="#121212"/>
</svg>
