<svg id="Layer_1" data-name="Layer 1" xmlns="http://www.w3.org/2000/svg" viewBox="0 0 1000 1000"><defs><style>.cls-1{fill:#ffa3e2;}.cls-2{fill:#fff;}.cls-3{fill:#ffff59;}.cls-4{fill:#ededc5;}.cls-5{fill:#fdd3b3;}.cls-6{fill:#94003d;}.cls-7{fill:#b0b000;}.cls-8{fill:#fff028;}.cls-10,.cls-11,.cls-12,.cls-13,.cls-14,.cls-15,.cls-9{fill:none;stroke:#94003d;}.cls-10,.cls-11,.cls-12,.cls-13,.cls-15,.cls-9{stroke-linecap:round;stroke-linejoin:round;}.cls-9{stroke-width:1.95px;}.cls-10{stroke-width:1.75px;}.cls-11{stroke-width:0.97px;}.cls-12{stroke-width:1.82px;}.cls-13{stroke-width:1.84px;}.cls-14{stroke-miterlimit:10;stroke-width:1.95px;}.cls-15{stroke-width:1.62px;}</style></defs><path class="cls-1" d="M160.56,119.81c-2.67,2.45-5.56,5-8.58,7.48,103.05.29,215.16,7.11,304.53,9,119.79,2.52,241,12.5,402.57-26V847.66s-33.33,15.64-84.71,20.61h-.62V214C652.2,138.41,285.82,140.45,141.3,136.73c-1.91-10.63,5.31-41.78,39.3-43.42,221.14,0,508.84,26.8,621.87-28.76V85.41l-8.79-3.86S737.13,108.34,624,110.3c-52.19.91-146.76-.83-233.47-3-101.18-2.49-212-5.53-212-5.53s-1.62,1.84-4.45,4.79c-1.75,1.83-3.95,4.08-6.51,6.58C165.47,115.25,163.11,117.49,160.56,119.81Z"/><path class="cls-2" d="M835.4,99.89l23.68,10.41c-161.55,38.49-282.78,28.51-402.57,26-89.37-1.89-201.48-8.71-304.53-9,3-2.5,5.91-5,8.58-7.48,2.91.1,179.37,5.88,305.1,8.35C600.38,130.8,717.27,139.75,835.34,100Z"/><path class="cls-2" d="M835.4,99.89l-.06.12c-118.07,39.74-235,30.79-369.68,28.15-125.73-2.47-302.19-8.25-305.1-8.35,2.55-2.32,4.91-4.56,7-6.64l.1.09s168.29,5.51,293.66,8.55c129.27,3.13,245.72,11.87,359-27.87l.26-.54Z"/><path class="cls-2" d="M820.64,93.4l-.26.54c-113.31,39.74-229.76,31-359,27.87-125.37-3-293.66-8.55-293.66-8.55l-.1-.09c2.56-2.5,4.76-4.75,6.51-6.58l.49.32s167.08,6,285.32,8.55c125.52,2.71,237.42,11.8,347.43-27.9Z"/><path class="cls-2" d="M802.47,85.41l4.87,2.15c-110,39.7-221.91,30.61-347.43,27.9-118.24-2.55-285.32-8.55-285.32-8.55l-.49-.32c2.83-3,4.45-4.79,4.45-4.79s110.84,3,212,5.53c86.71,2.14,181.28,3.88,233.47,3,113.09-2,169.64-28.75,169.64-28.75Z"/><path class="cls-3" d="M692.91,499.69H675.52c0-.35-.16-1.4-.16-1.76,0-5.55,4.24-10.06,9.47-10.06s9.47,4.51,9.47,10.06a10,10,0,0,1-.19,2h0Z"/><path class="cls-4" d="M645.18,510.62a6.69,6.69,0,0,0,2.42-5.25c0-3.54-2.53-6.4-5.65-6.4a5.72,5.72,0,0,0-5.25,4,7.19,7.19,0,0,0-.39,2.35c0,3.53,2.53,6.4,5.64,6.4A5.2,5.2,0,0,0,645.18,510.62Zm-16.62-8.91a15.77,15.77,0,0,1,15.36-11.91c6.43,0,13,4.1,15.08,9.89h33.91l1.2.23h0a10.08,10.08,0,0,1-4.62,6.77l1.23,4.15-.7.21H659a16.11,16.11,0,0,1-11.63,9.53,16.57,16.57,0,0,1-3.45.37,15.68,15.68,0,0,1-15.8-15.57A15.3,15.3,0,0,1,628.56,501.71Z"/><polygon class="cls-3" points="690.72 510.84 693.76 521.07 674.78 521.07 677.85 511.21 677.85 511.21 677.85 511.05 690.02 511.05 690.72 510.84"/><path class="cls-4" d="M677.85,511.05v.16h0l-3.07,9.86h19l-3-10.23-1.23-4.15a10.35,10.35,0,0,0,4.81-8.76c0-5.55-4.24-10.06-9.47-10.06s-9.47,4.51-9.47,10.06c0,.36.13,1.41.16,1.76H663.36V460.44l0,0h0l19.94-15.34c8-6.14,12.09-14.32,6.89-21.08s-13.88-5.82-21.5,0l-4.78,3.57,0,0-.2-4.46c.09-15.58,8-23.47,21-23.47,14,0,20.79,10.24,20.79,25.86V513c0,16-9,24.09-21.07,24.09s-21-7.38-21-25.79v-.26Z"/><path class="cls-4" d="M615.06,478.21h0l0-.14q.56-.07,1.08-.18c8.62-1.56,16.25-6.51,23-12.08,4.41-3.64,8.67-7.74,10.92-13,1.32-3.1,1.83-6.83.12-9.74a7.51,7.51,0,0,0-3.09-2.85h0l0-.07h0l9.82-7.36,7-5.2h0l4.78-3.57c7.62-5.85,16.31-6.8,21.5,0s1.12,14.94-6.89,21.08L663.35,460.4h0l-26,20c-8.2,6.29-16.48,5.71-21-.15A12.17,12.17,0,0,1,615.06,478.21Z"/><path class="cls-1" d="M642,499c3.12,0,5.65,2.86,5.65,6.4a6.69,6.69,0,0,1-2.42,5.25,16.84,16.84,0,0,0-8.48-7.6A5.72,5.72,0,0,1,642,499Z"/><path class="cls-1" d="M645.18,510.62a5.2,5.2,0,0,1-3.23,1.15c-3.11,0-5.64-2.87-5.64-6.4a7.19,7.19,0,0,1,.39-2.35A16.84,16.84,0,0,1,645.18,510.62Z"/><path class="cls-1" d="M647.45,521a17.88,17.88,0,0,1-11.06,15.12h0l-.41,0h0a14.06,14.06,0,0,0-2.06-5.91c-3.36-5.44-10.89-7.93-16.74-5.36a13.43,13.43,0,0,0-3.64,2.42,17.87,17.87,0,0,1,15-25.59,15.3,15.3,0,0,0-.44,3.67A15.68,15.68,0,0,0,643.92,521a16.57,16.57,0,0,0,3.45-.37Z"/><path class="cls-4" d="M632.88,546.6h0l0,0a14.94,14.94,0,0,1,16.5-4.4,14,14,0,0,1,8.33,15.45c-1.39,6.21-7.35,11.42-17.63,9.75,5,3.67,7.23,11.5,4.91,17.63s-9.56,9.53-15.68,8.39-10.79-7.52-10.67-13.68c-2.08,5.35-7.49,9.59-13,10a13.59,13.59,0,0,1-13.21-7.71A14.05,14.05,0,0,1,596.33,566l.08-.31c-4.78-1.14-9-3.28-10.66-7.77-2.19-6-.79-14.58,6.55-18,5.93-2.72,12.57-1.51,17.66,3.3l.12-.06c-3.08-6.14-.52-12.32,3.46-15.94a13.43,13.43,0,0,1,3.64-2.42c5.85-2.57,13.38-.08,16.74,5.36a14.06,14.06,0,0,1,2.06,5.91A14.32,14.32,0,0,1,632.88,546.6Z"/><path class="cls-5" d="M644.81,425.89l.66.06a15.68,15.68,0,0,1,11.42,6.78l.05.06-9.82,7.36h0l0,.07h0a7.51,7.51,0,0,1,3.09,2.85c1.71,2.91,1.2,6.64-.12,9.74-2.25,5.25-6.51,9.35-10.92,13-6.76,5.57-14.39,10.52-23,12.08q-.52.11-1.08.18a44.54,44.54,0,0,1-19.42-2,168.13,168.13,0,0,1-19.85-8.27h0l-.71-.1,4.26-32.43h0l.22,0c4.67-.06,9.24-2.27,13-5.16,4.38-3.38,8-7.67,12.08-11.37a14.55,14.55,0,0,1,6.18-3.74c2.38-.56,5.2.14,6.47,2.22h0l.29.2a11.73,11.73,0,0,1,3-1.22c3.41-.84,7.51.33,9.17,3.43a15.88,15.88,0,0,1,4.12-.64c4.54-.1,9.34,2.34,11,6.59Z"/><path class="cls-6" d="M549.7,247.56a.39.39,0,1,1,.35.42A.38.38,0,0,1,549.7,247.56Z"/><path class="cls-5" d="M547.76,231c3.78.08,7.77-.09,11-1.24l.1.27h0a65.25,65.25,0,0,1,.45,12.21c3.92,4.1,8.32,9.6,10.54,14.6s2.68,10.86,0,15.54-8,6.83-13.93,6.19c-1.4,6.18-3.94,11-9.33,17.7h0l-.35.05h0a7.24,7.24,0,0,0-3.81-3.57c-2.72-1.22-7.15-1.31-9,2.21l-.3.05h0a10,10,0,0,0-1.58-4,8.43,8.43,0,0,0-6.83-3.53v-.6c-.2-11.54-11.92-19.23-11.92-19.23,10.56-5.2,18.62-23.48,14.05-37.42C533.28,230.69,540.9,230.87,547.76,231Zm2.71,16.61a.39.39,0,1,0-.77-.08.38.38,0,0,0,.35.42A.38.38,0,0,0,550.47,247.64Z"/><path class="cls-5" d="M533.43,295c1.81-3.52,6.24-3.43,9-2.21a7.24,7.24,0,0,1,3.81,3.57h0a10.8,10.8,0,0,1,.18,7h0l.1,0h0c3.15-1.49,7,1.25,7.89,4.6s-.5,6.84-2.13,9.89l.22.11h0c2.57-1.13,5.58,1.23,6.16,4s-.56,5.6-1.87,8.11c-5.22,9.95-15.2,21.75-23.79,29.11-1.45,1.24-2.83,2.35-4.17,3.38-7.19,5.53-12.86,8.5-17.91,14.28-10.58-5.28-19.94-10.82-29.37-16.68h0l0,0c-2.14-6-1.3-15.35.55-21.55s4.32-12.32,4.66-18.8c.07-1.35.05-2.71,0-4.07a46.14,46.14,0,0,1,.09-5.39c.3-3.15,1.39-6.44,3.75-8.32,3.3-2.61,8.21-1.47,10.85,1.77s3.29,8,2.65,12.37-2.39,8.35-4.14,12.31a69.33,69.33,0,0,0,13.73-26.66c1.26-4.76,2.34-10.16,6.27-12.91a8,8,0,0,1,4.74-1.4,8.43,8.43,0,0,1,6.83,3.53,10,10,0,0,1,1.58,4h0Z"/><path class="cls-7" d="M533.63,408.87H534c17.18,2.66,33.72,9,46,20.92l-.72,5.52L575,467.74l-1.14,8.71a135.11,135.11,0,0,1-46.27,2.63h-.07A445.53,445.53,0,0,0,533.63,408.87Z"/><path class="cls-7" d="M395.89,484.82l.28,0c17,.85,40.42-6.66,53.19-24.2v-.48A58.61,58.61,0,0,0,487,443.86c17-16.14,25-41.12,30-64q-3.09-1.45-6-2.94c5.05-5.78,10.72-8.75,17.91-14.28l1,.48h0a246.56,246.56,0,0,1,3.84,45.78,445.53,445.53,0,0,1-6.07,70.2c-2,12.51-4.52,25.06-7.43,37.4h-4.45c-38.37-.09-77.65-4.49-115.5-11.08-2.12-.36-4.24-.74-6.36-1.12q.39-4.86.84-9.31c.37-3.55.77-6.92,1.22-10.14Z"/><path class="cls-3" d="M466.56,305.53h0a37.93,37.93,0,0,1-8.12-13c-13-1.68-26.61-7.19-36.07-16.28-8.67-8.35-12.47-19.87-10.53-29.37s9.23-16.9,18.87-20.59,24.72-3.29,36.32-.77l.51.17h0c7.46-26.94,42.73-33.35,68.49-27.18,30.44,7.28,31.39,20.12,28.72,26.14a9.6,9.6,0,0,1-6,5.14c-3.24,1.15-7.23,1.32-11,1.24-6.86-.16-14.48-.34-20.91-.78,4.57,13.94-3.49,32.22-14.05,37.42,0,0,11.72,7.69,11.92,19.23v.6a8,8,0,0,0-4.74,1.4c-3.93,2.75-5,8.15-6.27,12.91A69.33,69.33,0,0,1,500,328.47c1.75-4,3.5-8,4.14-12.31s0-9.12-2.65-12.37-7.55-4.38-10.85-1.77c-2.36,1.88-3.45,5.17-3.75,8.32a46.14,46.14,0,0,0-.09,5.39h-.17A35.31,35.31,0,0,1,466.56,305.53Z"/><path class="cls-7" d="M469,358.82a38.58,38.58,0,0,1,5.82-2.86q3.39,2.15,6.75,4.23h0c9.43,5.86,18.79,11.4,29.37,16.68q3,1.49,6,2.94c-5,22.92-12.94,47.9-30,64a58.61,58.61,0,0,1-37.62,16.32,63.92,63.92,0,0,1-28.05-5.09,53.06,53.06,0,0,1-14.28-8.8h0c-11.39-9.85-17.83-24.11-19-39.51a77.43,77.43,0,0,1,2.08-23.2c3.5-15,10.73-30.13,19.54-40.7a138.62,138.62,0,0,1,12.21-13,106.54,106.54,0,0,1,11.12-9.07c15.63.65,31.55,11,35.57,37.22Z"/><path class="cls-7" d="M474.77,356a38.58,38.58,0,0,0-5.82,2.86l-.46-.77c-4-26.25-19.94-36.57-35.57-37.22a96.05,96.05,0,0,1,33.59-15.25l.05-.05h0a35.31,35.31,0,0,0,20.05,10.2h.17c0,1.36.05,2.72,0,4.07-.34,6.48-2.81,12.6-4.66,18.8s-2.69,15.57-.55,21.55l0,0Q478.16,358.11,474.77,356Z"/><path class="cls-4" d="M468.31,877.4a8.81,8.81,0,1,1-5,16.08,38.16,38.16,0,0,0,.65-8.14,35.23,35.23,0,0,0-.72-6.45l.21,0h0A8.73,8.73,0,0,1,468.31,877.4Z"/><path class="cls-7" d="M395.88,484.82c2.08-14.73,5.25-26.37,10.7-37.6h0l.44-.92a53.06,53.06,0,0,0,14.28,8.8,63.92,63.92,0,0,0,28.05,5.09v.48c-12.77,17.54-36.2,25-53.19,24.2l-.28,0Z"/><path class="cls-4" d="M527.65,853.75c18.88,2.77,41.3-4.23,56.9,10.62A29.75,29.75,0,0,1,592.89,880c1.42,7.1.41,14.66-3.48,20.65-4.19,6.43-12.09,11.17-20.29,12.66-7.45,1.35-17.21,1-24.76.85-23.92-.54-74.26-2-92.77-2.6h0l0-.07h0c6.93-4.26,10.45-11,11.79-17.95a8.81,8.81,0,1,0,.14-14.63h0l-.21,0c-1.92-9.15-7.51-14.56-14.62-18.45l.1-.19h0c1.42-8,4.77-21.78,6.33-28.36v0h0a261.94,261.94,0,0,0,56.47,6.45v.82C511.9,847.66,520.27,852.67,527.65,853.75Z"/><path class="cls-8" d="M443.89,829.16l-.17-.07c-.85,2.16-1.73,4.28-2.62,6.35-10.59-2.19-22.45-5.08-34.73-8.9-19.08-5.92-39.17-14.08-57.17-25.36h0c-4.53-2.83-8.92-5.87-13.13-9.11,14.63-42.34,40.91-83,70.43-116.71h0l-.19-1.05h0c-12.46-47.16-9.34-92.26.7-139.15-5.72-9.17-6.95-21.36-6.82-29.77,37.85,6.59,77.13,11,115.5,11.08v.78h0a83.24,83.24,0,0,1-5.35,14.27c8.79,42.23,9.71,69.74,3.91,109.23,8.5,22.49,9.41,47.76,1.6,70.61,17.32,39,24.87,82.28,22.57,124.91a178.23,178.23,0,0,1-26.85,2,261.94,261.94,0,0,1-56.47-6.45h0Q449.41,830.6,443.89,829.16Z"/><path class="cls-1" d="M414.76,324.42a39.72,39.72,0,0,1,18.16-3.59,106.54,106.54,0,0,0-11.12,9.07,19.4,19.4,0,0,0-8.27-5.1Z"/><path class="cls-4" d="M349.2,801.18c18,11.28,38.09,19.44,57.17,25.36h0l-.13.4h0c-2.78,12.6,4.76,22.51,13.48,25.56s18.13,2.65,26.45,6.66c.84.41,1.66.83,2.47,1.27,7.11,3.89,12.7,9.3,14.62,18.45a35.23,35.23,0,0,1,.72,6.45,38.16,38.16,0,0,1-.65,8.14c-1.34,7-4.86,13.69-11.79,17.95-4.94,3.05-11.61,4.84-20.46,4.6-18.29-.5-32.06-3.2-47.52-12-17.07-9.76-33.66-23.18-48.2-38.19a252.5,252.5,0,0,1-17.28-19.75s18.6-29.13,30.87-44.47Zm10.47,43.08a8.81,8.81,0,1,0-8.81,8.81A8.82,8.82,0,0,0,359.67,844.26Z"/><path class="cls-1" d="M408.74,322.56h0l-.2.85h0c-7.14-1.58-16.15-2.18-26.32-3.32-.56-.07-1.11-.12-1.66-.17l.87-.4c-3.31-6.43-9.67-11.15-16.08-14.5s-13.19-7.77-14.94-14.78c-2-7.87,3.53-16.07,10.68-19.88,12.92-6.89,30.14-1.82,39.41,9.51S412.11,308.31,408.74,322.56Z"/><path class="cls-1" d="M443.89,829.16q5.5,1.43,11.2,2.68h0v0c-1.56,6.58-4.91,20.39-6.33,28.36h0l-.1.19c-.81-.44-1.63-.86-2.47-1.27-8.32-4-17.83-3.63-26.45-6.66s-16.26-13-13.48-25.56h0l.13-.4h0c12.28,3.82,24.14,6.71,34.73,8.9.89-2.07,1.77-4.19,2.62-6.35Z"/><path class="cls-1" d="M546.49,303.4h0l-.1,0h0a10.8,10.8,0,0,0-.18-7l.35-.05h0c5.39-6.71,7.93-11.52,9.33-17.7,5.92.64,11.19-1.5,13.93-6.19s2.27-10.53,0-15.54-6.62-10.5-10.54-14.6a65.25,65.25,0,0,0-.45-12.21h0l-.1-.27a9.6,9.6,0,0,0,6-5.14c2.67-6,1.72-18.86-28.72-26.14-25.76-6.17-61,.24-68.49,27.18h0l-.51-.17c-11.6-2.52-26.67-2.92-36.32.77s-16.94,11.09-18.87,20.59,1.86,21,10.53,29.37c9.46,9.09,23,14.6,36.07,16.28a37.93,37.93,0,0,0,8.12,13l-.05.05a96.05,96.05,0,0,0-33.59,15.25,39.72,39.72,0,0,0-18.16,3.59l-1.23.38a42.82,42.82,0,0,0-5-1.39h0l.2-.85h0c3.37-14.25,1-31.36-8.24-42.69s-26.49-16.4-39.41-9.51c-7.15,3.81-12.66,12-10.68,19.88,1.75,7,8.53,11.44,14.94,14.78s12.77,8.07,16.08,14.5l-.87.4c-16.65-1.56-27.33,2.64-31.77,30h-.07l-11.24-1.33-17.77-2.12-6.23-.74-1.75,14.77,3.42.4,0,.26L311.55,398l0,.15-5.89-.71s-11.28,55.93,30.19,60H336c-.3,6,.07,12.07,2.34,17.15,4.39,9.85,15,14.39,25.5,16.93a121.92,121.92,0,0,0,30.63,3.37l.19,0q-.45,4.46-.84,9.31c2.12.38,4.24.76,6.36,1.12-.13,8.41,1.1,20.6,6.82,29.77-10,46.89-13.16,92-.7,139.15h0l.19,1.05h0c-29.52,33.71-55.8,74.37-70.43,116.71,4.21,3.24,8.6,6.28,13.13,9.11h0l-.25.4c-12.27,15.34-30.87,44.45-30.87,44.47a252.5,252.5,0,0,0,17.28,19.75l-.06.05c-63.79-.06-129.15,1-194,1V136.74h0c144.52,3.72,510.9,1.68,632.45,77.29V935.45c-50.46-28.39-112.1-45.4-180.86-55.49a29.75,29.75,0,0,0-8.34-15.59c-15.6-14.85-38-7.85-56.9-10.62-7.38-1.08-15.75-6.09-16.09-14.63v-.82a178.23,178.23,0,0,0,26.85-2c2.3-42.63-5.25-85.92-22.57-124.91,7.81-22.85,6.9-48.12-1.6-70.61,5.8-39.49,4.88-67-3.91-109.23a83.24,83.24,0,0,0,5.35-14.27h0v-.78h4.45c2.91-12.34,5.4-24.89,7.43-37.4h.07a135.11,135.11,0,0,0,46.27-2.63l1.14-8.71.71.1h0a168.13,168.13,0,0,0,19.85,8.27,44.54,44.54,0,0,0,19.42,2l0,.14h0a12.17,12.17,0,0,0,1.29,2.06c4.5,5.86,12.78,6.44,21,.15l26-20,0,0v39.25H659c-2.07-5.79-8.65-9.89-15.08-9.89a15.77,15.77,0,0,0-15.36,11.91,17.87,17.87,0,0,0-15,25.59c-4,3.62-6.54,9.8-3.46,15.94l-.12.06c-5.09-4.81-11.73-6-17.66-3.3-7.34,3.37-8.74,11.92-6.55,18,1.63,4.49,5.88,6.63,10.66,7.77l-.08.31a14.05,14.05,0,0,0-3.84,16.06,13.59,13.59,0,0,0,13.21,7.71c5.49-.44,10.9-4.68,13-10-.12,6.16,4.55,12.54,10.67,13.68s13.36-2.27,15.68-8.39.07-14-4.91-17.63c10.28,1.67,16.24-3.54,17.63-9.75a14,14,0,0,0-8.33-15.45,14.94,14.94,0,0,0-16.5,4.4l0,0h0a14.32,14.32,0,0,0,3.1-10.45h0l.41,0h0A17.88,17.88,0,0,0,647.45,521l-.08-.39A16.11,16.11,0,0,0,659,511.05h4.42v.26c0,18.41,8.92,25.79,21,25.79S705.5,529,705.5,513V425.47c0-15.62-6.83-25.86-20.79-25.86-13,0-21,7.89-21,23.47l.2,4.46,0,0h0l-7,5.2-.05-.06A15.68,15.68,0,0,0,645.47,426l-.66-.06,0-.24c-1.63-4.25-6.43-6.69-11-6.59a15.88,15.88,0,0,0-4.12.64c-1.66-3.1-5.76-4.27-9.17-3.43a11.73,11.73,0,0,0-3,1.22l-.29-.2h0c-1.27-2.08-4.09-2.78-6.47-2.22a14.55,14.55,0,0,0-6.18,3.74c-4.12,3.7-7.7,8-12.08,11.37-3.75,2.89-8.32,5.1-13,5.16l-.22,0h0l.72-5.52c-12.3-12-28.84-18.26-46-20.92h-.37a246.56,246.56,0,0,0-3.84-45.78h0l-1-.48c1.34-1,2.72-2.14,4.17-3.38,8.59-7.36,18.57-19.16,23.79-29.11,1.31-2.51,2.45-5.34,1.87-8.11s-3.59-5.13-6.16-4h0l-.22-.11c1.63-3.05,3-6.54,2.13-9.89S549.64,301.91,546.49,303.4Z"/><path class="cls-4" d="M409.59,342.87c-8.81,10.57-16,25.66-19.54,40.7l-.35-.09-15.94-2.27h0l-.07.08a14.18,14.18,0,0,0-14.41-2.14l-14.27-2q.78-6.3,1.63-12.49h0q1-7.19,2.07-14.15l.09-.55c4.44-27.37,15.12-31.57,31.77-30,.55.05,1.1.1,1.66.17,10.17,1.14,19.18,1.74,26.32,3.32a42.82,42.82,0,0,1,5,1.39,19.4,19.4,0,0,1,8.27,5.1A138.62,138.62,0,0,0,409.59,342.87Z"/><path class="cls-4" d="M406.58,447.21h0c-5.45,11.23-8.62,22.87-10.7,37.6-.45,3.22-.85,6.59-1.22,10.14l-.19,0a121.92,121.92,0,0,1-30.63-3.37c-10.49-2.54-21.11-7.08-25.5-16.93-2.27-5.08-2.64-11.16-2.34-17.15.17-3.36.56-6.68.94-9.78,1.8-14.7,3.43-30.27,5.17-45.88q.67-6,1.36-12a13.26,13.26,0,0,1,5.65,1.58,18.8,18.8,0,0,0-.49,2.75c-.83,7.46,2.53,14.3,8,17.55l.14,11.64c-6.74,1.45-12.23,7.72-13.11,15.78-1.08,9.72,5,18.39,13.52,19.43l.18,0c8.65,1,16.54-6.21,17.62-16s-5.06-18.51-13.71-19.47a30.8,30.8,0,0,0,1.05-9.49c8.66.95,16.54-6.22,17.62-16a18.35,18.35,0,0,0-6.26-16.33l.07-.08h0l15.94,2.27.35.09a77.43,77.43,0,0,0-2.08,23.2c1.22,15.4,7.66,29.66,19,39.51h0Z"/><path class="cls-8" d="M361.27,423.12c8.65,1,14.79,9.67,13.71,19.47s-9,17-17.62,16l-.18,0-.41-35.21A13.81,13.81,0,0,1,361.27,423.12Z"/><path class="cls-8" d="M359.27,379.15a14.18,14.18,0,0,1,14.41,2.14,18.35,18.35,0,0,1,6.26,16.33c-1.08,9.79-9,17-17.62,16a14.13,14.13,0,0,1-5.69-1.92l-.05-4.25c-.22-7.85-2.73-13.47-7.46-16A17.79,17.79,0,0,1,359.27,379.15Z"/><path class="cls-4" d="M362.32,413.63a30.8,30.8,0,0,1-1.05,9.49,13.81,13.81,0,0,0-4.5.23l-.14-11.64A14.13,14.13,0,0,0,362.32,413.63Z"/><path class="cls-4" d="M345,377.12l14.27,2a17.79,17.79,0,0,0-10.15,12.26,13.26,13.26,0,0,0-5.65-1.58C344,385.58,344.47,381.33,345,377.12Z"/><path class="cls-4" d="M350.86,835.45a8.81,8.81,0,1,1-8.81,8.81A8.82,8.82,0,0,1,350.86,835.45Z"/><path class="cls-8" d="M356.77,423.35l.41,35.21c-8.55-1-14.6-9.71-13.52-19.43C344.54,431.07,350,424.8,356.77,423.35Z"/><path class="cls-8" d="M356.58,407.46l.05,4.25c-5.47-3.25-8.83-10.09-8-17.55a18.8,18.8,0,0,1,.49-2.75C353.85,394,356.36,399.61,356.58,407.46Z"/><path class="cls-3" d="M348.7,350.48q-1.09,7-2.07,14.15h0l-.21,0h0l-31.27-3.69-3.42-.4,1.75-14.77,6.23.74c.11,5.36,3.73,9.65,8.41,9.95,4.35.28,8.21-3.1,9.36-7.83l11.24,1.33h.07Z"/><path class="cls-3" d="M346.42,364.59l.21,0q-.86,6.18-1.63,12.49c-.53,4.21-1,8.46-1.53,12.71a17.56,17.56,0,0,0-1.79,0c-6.9.2-11.25,4.17-13,10.43l-17.15-2.06,0-.15,3.57-36.85,0-.26,31.27,3.69h0Z"/><path class="cls-3" d="M341.68,389.79a17.56,17.56,0,0,1,1.79,0q-.69,6-1.36,12l-13.43-1.61C330.43,394,334.78,390,341.68,389.79Z"/><path class="cls-3" d="M319.71,346.47l17.77,2.12c-1.15,4.73-5,8.11-9.36,7.83C323.44,356.12,319.82,351.83,319.71,346.47Z"/><path class="cls-4" d="M328.68,400.22l13.43,1.61c-1.74,15.61-3.37,31.18-5.17,45.88-.38,3.1-.77,6.42-.94,9.78h-.17c-41.47-4.1-30.19-60-30.19-60l5.89.71Z"/><path class="cls-9" d="M592.89,880c68.76,10.09,130.4,27.1,180.86,55.49V213.86"/><path class="cls-9" d="M141.3,136.74V866.9c64.85,0,130.21-1.11,194-1"/><path class="cls-9" d="M773.75,214C652.2,138.41,285.82,140.45,141.3,136.73"/><path class="cls-9" d="M141.3,136.74h0c-1.91-10.63,5.31-41.78,39.3-43.42,221.14,0,508.84,26.8,621.87-28.76V85.46"/><path class="cls-10" d="M802.47,85.41l-8.79-3.86S737.13,108.34,624,110.3c-52.19.91-146.76-.83-233.47-3-101.18-2.49-212-5.53-212-5.53s-1.62,1.84-4.45,4.79c-1.75,1.83-3.95,4.08-6.51,6.58-2.12,2.08-4.48,4.32-7,6.64s-5.56,5-8.58,7.48c103.05.29,215.16,7.11,304.53,9,119.79,2.52,241,12.5,402.57-26L835.4,99.89,820.64,93.4l-13.3-5.84Z"/><path class="cls-10" d="M859.08,110.3V847.66s-33.33,15.64-84.71,20.61"/><path class="cls-11" d="M174.59,106.91s167.08,6,285.32,8.55c125.52,2.71,237.42,11.8,347.43-27.9l.09,0"/><path class="cls-11" d="M167.69,113.26s168.29,5.51,293.66,8.55c129.27,3.13,245.72,11.87,359-27.87"/><path class="cls-11" d="M160.53,119.81h0c2.91.1,179.37,5.88,305.1,8.35C600.38,130.8,717.27,139.75,835.34,100"/><line class="cls-9" x1="448.64" y1="860.45" x2="448.64" y2="860.44"/><path class="cls-12" d="M621.13,457.34c3.15-2.83,5.44-6.47,8-9.81s5.73-6.53,9.74-7.85a10.82,10.82,0,0,1,8.16.55,7.51,7.51,0,0,1,3.09,2.85c1.71,2.91,1.2,6.64-.12,9.74-2.25,5.25-6.51,9.35-10.92,13-6.76,5.57-14.39,10.52-23,12.08q-.52.11-1.08.18a44.54,44.54,0,0,1-19.42-2,168.13,168.13,0,0,1-19.85-8.27h0"/><path class="cls-12" d="M618,440.68c3.71-3.91,7.54-7.78,12.11-10.64,4.38-2.75,9.53-4.53,14.67-4.15l.66.06a15.68,15.68,0,0,1,11.42,6.78"/><path class="cls-12" d="M611,432.92c3.57-2.81,6.74-6.11,10.38-8.85a25.74,25.74,0,0,1,8.32-4.37,15.88,15.88,0,0,1,4.12-.64c4.54-.1,9.34,2.34,11,6.59"/><path class="cls-12" d="M605.05,430.18c2.63-2.37,4.63-5.31,7-8a21.87,21.87,0,0,1,5.53-4.72,11.73,11.73,0,0,1,3-1.22c3.41-.84,7.51.33,9.17,3.43l0,0"/><path class="cls-12" d="M617.24,417.29c-1.27-2.08-4.09-2.78-6.47-2.22a14.55,14.55,0,0,0-6.18,3.74c-4.12,3.7-7.7,8-12.08,11.37-3.75,2.89-8.32,5.1-13,5.16"/><path class="cls-9" d="M527.63,479.08a135.11,135.11,0,0,0,46.27-2.63l1.14-8.71,4.26-32.43.72-5.52c-12.3-12-28.84-18.26-46-20.92"/><path class="cls-9" d="M663.42,511.31c0,18.41,8.92,25.79,21,25.79S705.5,529,705.5,513V425.47c0-15.62-6.83-25.86-20.79-25.86-13,0-21,7.89-21,23.47l.2,4.46"/><line class="cls-9" x1="663.37" y1="460.44" x2="663.36" y2="499.59"/><path class="cls-9" d="M647.12,440.15l9.82-7.36,7-5.2h0l4.78-3.57c7.62-5.85,16.31-6.8,21.5,0s1.12,14.94-6.89,21.08L663.35,460.4h0l-26,20c-8.2,6.29-16.48,5.71-21-.15a12.17,12.17,0,0,1-1.29-2.06"/><polyline class="cls-12" points="659 511.05 663.42 511.05 677.85 511.05 690.02 511.05"/><path class="cls-12" d="M659,499.69c-2.07-5.79-8.65-9.89-15.08-9.89a15.77,15.77,0,0,0-15.36,11.91,15.3,15.3,0,0,0-.44,3.67A15.68,15.68,0,0,0,643.92,521a16.57,16.57,0,0,0,3.45-.37A16.11,16.11,0,0,0,659,511.05"/><polyline class="cls-12" points="692.91 499.69 675.52 499.69 663.36 499.69 659 499.69"/><path class="cls-12" d="M636.7,503a5.72,5.72,0,0,1,5.25-4c3.12,0,5.65,2.86,5.65,6.4a6.69,6.69,0,0,1-2.42,5.25,5.2,5.2,0,0,1-3.23,1.15c-3.11,0-5.64-2.87-5.64-6.4A7.19,7.19,0,0,1,636.7,503Z"/><path class="cls-12" d="M640.12,567.43c5,3.67,7.23,11.5,4.91,17.63s-9.56,9.53-15.68,8.39-10.79-7.52-10.67-13.68"/><path class="cls-12" d="M596.33,566a14.05,14.05,0,0,0-3.84,16.06,13.59,13.59,0,0,0,13.21,7.71c5.49-.44,10.9-4.68,13-10"/><path class="cls-12" d="M610,543.3c-5.09-4.81-11.73-6-17.66-3.3-7.34,3.37-8.74,11.92-6.55,18,1.63,4.49,5.88,6.63,10.66,7.77l.15,0"/><path class="cls-12" d="M632.44,547.13c.15-.18.3-.35.44-.53a14.32,14.32,0,0,0,3.1-10.45,14.06,14.06,0,0,0-2.06-5.91c-3.36-5.44-10.89-7.93-16.74-5.36a13.43,13.43,0,0,0-3.64,2.42c-4,3.62-6.54,9.8-3.46,15.94.09.18.19.37.29.54"/><path class="cls-12" d="M640.12,567.43c10.28,1.67,16.24-3.54,17.63-9.75a14,14,0,0,0-8.33-15.45,14.94,14.94,0,0,0-16.5,4.4c-.18.21-.35.44-.52.66"/><path class="cls-9" d="M621.78,535.6a17.87,17.87,0,0,1,6.78-33.89c.35,0,.72,0,1.08,0A18.67,18.67,0,0,1,636.7,503a16.84,16.84,0,0,1,8.48,7.6l0,0"/><path class="cls-9" d="M647.45,521a17.88,17.88,0,0,1-11.06,15.12"/><path class="cls-9" d="M677.85,511.21l-3.07,9.86h19l-3-10.23-1.23-4.15a10.35,10.35,0,0,0,4.81-8.76c0-5.55-4.24-10.06-9.47-10.06s-9.47,4.51-9.47,10.06c0,.36.13,1.41.16,1.76"/><line class="cls-9" x1="511.56" y1="838.3" x2="511.56" y2="839.12"/><line class="cls-13" x1="467.03" y1="225.53" x2="467.54" y2="225.7"/><line class="cls-14" x1="406.24" y1="826.94" x2="406.37" y2="826.54"/><path class="cls-9" d="M481.52,360.19q-3.36-2.08-6.75-4.23a38.58,38.58,0,0,0-5.82,2.86c-13.27,7.85-26.65,24.7-30.94,40.91"/><path class="cls-9" d="M407,446.29a53.06,53.06,0,0,0,14.28,8.8,63.92,63.92,0,0,0,28.05,5.09A58.61,58.61,0,0,0,487,443.86c17-16.14,25-41.12,30-64q-3.09-1.45-6-2.94c-10.58-5.28-19.94-10.82-29.37-16.68"/><path class="cls-9" d="M466.51,305.58a96.05,96.05,0,0,0-33.59,15.25,106.54,106.54,0,0,0-11.12,9.07,138.62,138.62,0,0,0-12.21,13c-8.81,10.57-16,25.66-19.54,40.7a77.43,77.43,0,0,0-2.08,23.2c1.22,15.4,7.66,29.66,19,39.51"/><path class="cls-9" d="M406.58,447.22c-5.45,11.23-8.62,22.87-10.7,37.6-.45,3.22-.85,6.59-1.22,10.14q-.45,4.46-.84,9.31"/><path class="cls-9" d="M529.79,363.08h0a246.56,246.56,0,0,1,3.84,45.78,445.53,445.53,0,0,1-6.07,70.2c-2,12.51-4.52,25.06-7.43,37.4h-4.45c-38.37-.09-77.65-4.49-115.5-11.08-2.12-.36-4.24-.74-6.36-1.12"/><path class="cls-9" d="M515.68,517.26a83.24,83.24,0,0,1-5.35,14.27c8.79,42.23,9.71,69.74,3.91,109.23,8.5,22.49,9.41,47.76,1.6,70.61,17.32,39,24.87,82.28,22.57,124.91a178.23,178.23,0,0,1-26.85,2,261.94,261.94,0,0,1-56.47-6.45h0q-5.68-1.25-11.2-2.68"/><path class="cls-9" d="M469.59,718.14c14.17-19,17.71-41.13,9.8-64.47,5.89-37.21,8.31-69.89,5-108.52,1.94-3.38,4.54-7,7.14-10.69"/><path class="cls-14" d="M443.72,829.09c13.18-33.29,21.95-76.39,25.87-111"/><path class="cls-14" d="M406.5,675.36c-29.52,33.71-55.8,74.37-70.43,116.71,4.21,3.24,8.6,6.28,13.13,9.11h0c18,11.28,38.09,19.44,57.17,25.36,12.28,3.82,24.14,6.71,34.73,8.9.89-2.07,1.77-4.19,2.62-6.35"/><path class="cls-9" d="M407,535.16c-10,46.89-13.16,92-.7,139.15h0"/><line class="cls-14" x1="406.24" y1="826.95" x2="406.24" y2="826.94"/><path class="cls-9" d="M318.08,846h0a252.5,252.5,0,0,0,17.28,19.75c14.54,15,31.13,28.43,48.2,38.19,15.46,8.84,29.23,11.54,47.52,12,8.85.24,15.52-1.55,20.46-4.6,6.93-4.26,10.45-11,11.79-17.95a38.16,38.16,0,0,0,.65-8.14,35.23,35.23,0,0,0-.72-6.45c-1.92-9.15-7.51-14.56-14.62-18.45-.81-.44-1.63-.86-2.47-1.27-8.32-4-17.83-3.63-26.45-6.66s-16.26-13-13.48-25.56"/><path class="cls-9" d="M349,801.58c-12.27,15.34-30.87,44.45-30.87,44.47"/><path class="cls-9" d="M451.59,911.52c18.51.59,68.85,2.06,92.77,2.6,7.55.18,17.31.5,24.76-.85,8.2-1.49,16.1-6.23,20.29-12.66,3.89-6,4.9-13.55,3.48-20.65a29.75,29.75,0,0,0-8.34-15.59c-15.6-14.85-38-7.85-56.9-10.62-7.38-1.08-15.75-6.09-16.09-14.63"/><path class="cls-9" d="M455.08,831.89c-1.56,6.58-4.91,20.39-6.33,28.36"/><path class="cls-9" d="M407,535.16c-5.72-9.17-6.95-21.36-6.82-29.77v0"/><path class="cls-12" d="M498.74,329.92c.41-.48.83-1,1.24-1.45a69.33,69.33,0,0,0,13.73-26.66c1.26-4.76,2.34-10.16,6.27-12.91a8,8,0,0,1,4.74-1.4,8.43,8.43,0,0,1,6.83,3.53,10,10,0,0,1,1.58,4c.6,3.59-.39,7.66-1.64,11.23A92.1,92.1,0,0,1,518.56,331"/><path class="cls-12" d="M533.42,295h0c1.81-3.52,6.24-3.43,9-2.21a7.24,7.24,0,0,1,3.81,3.57h0a10.8,10.8,0,0,1,.18,7,33.88,33.88,0,0,1-1.24,3.83c-3.75,9.84-11.27,21.59-18,29.53"/><path class="cls-12" d="M546.49,303.4c3.15-1.49,7,1.25,7.89,4.6s-.5,6.84-2.13,9.89a113,113,0,0,1-17.17,24.36"/><path class="cls-9" d="M510.89,376.88l0,0"/><path class="cls-12" d="M552.47,318c2.57-1.13,5.58,1.23,6.16,4s-.56,5.6-1.87,8.11c-5.22,9.95-15.2,21.75-23.79,29.11-1.45,1.24-2.83,2.35-4.17,3.38-7.19,5.53-12.86,8.5-17.91,14.28"/><path class="cls-12" d="M499.93,328.6s0-.09.05-.13c1.75-4,3.5-8,4.14-12.31s0-9.12-2.65-12.37-7.55-4.38-10.85-1.77c-2.36,1.88-3.45,5.17-3.75,8.32a46.14,46.14,0,0,0-.09,5.39c0,1.36.05,2.72,0,4.07-.34,6.48-2.81,12.6-4.66,18.8s-2.69,15.57-.55,21.55"/><path class="cls-9" d="M558.87,230.07a65.25,65.25,0,0,1,.45,12.21c3.92,4.1,8.32,9.6,10.54,14.6s2.68,10.86,0,15.54-8,6.83-13.93,6.19c-1.4,6.18-3.94,11-9.33,17.7"/><path class="cls-13" d="M466.56,305.53a37.93,37.93,0,0,1-8.12-13c-13-1.68-26.61-7.19-36.07-16.28-8.67-8.35-12.47-19.87-10.53-29.37s9.23-16.9,18.87-20.59,24.72-3.29,36.32-.77"/><path class="cls-13" d="M486.61,315.73a35.31,35.31,0,0,1-20.05-10.2"/><path class="cls-9" d="M538.63,282.12a12.54,12.54,0,0,0,7.12,3.21"/><path class="cls-9" d="M550.47,247.64a.38.38,0,0,1-.42.34.38.38,0,0,1-.35-.42.39.39,0,1,1,.77.08Z"/><path class="cls-9" d="M346.63,364.63q-.86,6.18-1.63,12.49c-.53,4.21-1,8.46-1.53,12.71q-.69,6-1.36,12c-1.74,15.61-3.37,31.18-5.17,45.88-.38,3.1-.77,6.42-.94,9.78-.3,6,.07,12.07,2.34,17.15,4.39,9.85,15,14.39,25.5,16.93a121.92,121.92,0,0,0,30.63,3.37"/><path class="cls-9" d="M422,330.08l-.16-.18a19.4,19.4,0,0,0-8.27-5.1,42.82,42.82,0,0,0-5-1.39c-7.14-1.58-16.15-2.18-26.32-3.32-.56-.07-1.11-.12-1.66-.17-16.65-1.56-27.33,2.64-31.77,30l-.09.55q-1.09,7-2.07,14.15"/><path class="cls-9" d="M381.43,319.52c-3.31-6.43-9.67-11.15-16.08-14.5s-13.19-7.77-14.94-14.78c-2-7.87,3.53-16.07,10.68-19.88,12.92-6.89,30.14-1.82,39.41,9.51s11.61,28.44,8.24,42.69"/><line class="cls-15" x1="373.76" y1="381.21" x2="389.7" y2="383.48"/><polyline class="cls-15" points="344.91 377.1 345 377.12 359.27 379.15 359.48 379.18"/><path class="cls-9" d="M342.12,401.83h0l-13.43-1.61-17.15-2.06-5.89-.71s-11.28,55.93,30.19,60"/><line class="cls-13" x1="311.55" y1="398.01" x2="315.12" y2="361.16"/><polyline class="cls-13" points="346.42 364.59 315.15 360.9 311.73 360.5 313.48 345.73 319.71 346.47 337.48 348.59 348.72 349.92"/><path class="cls-13" d="M337.48,348.58h0c-1.15,4.73-5,8.11-9.36,7.83-4.68-.3-8.3-4.59-8.41-9.95v0"/><path class="cls-9" d="M396.17,484.86c17,.85,40.42-6.66,53.19-24.2a0,0,0,0,0,0,0"/><path class="cls-10" d="M373.68,381.29a18.35,18.35,0,0,1,6.26,16.33c-1.08,9.79-9,17-17.62,16a14.13,14.13,0,0,1-5.69-1.92c-5.47-3.25-8.83-10.09-8-17.55a18.8,18.8,0,0,1,.49-2.75,17.79,17.79,0,0,1,10.15-12.26,14.18,14.18,0,0,1,14.41,2.14Z"/><path class="cls-10" d="M361.27,423.12c8.65,1,14.79,9.67,13.71,19.47s-9,17-17.62,16l-.18,0c-8.55-1-14.6-9.71-13.52-19.43.88-8.06,6.37-14.33,13.11-15.78A13.81,13.81,0,0,1,361.27,423.12Z"/><path class="cls-10" d="M362.32,413.63a30.8,30.8,0,0,1-1.05,9.49"/><path class="cls-10" d="M327.8,408.28a27.2,27.2,0,0,1,.88-8.06c1.75-6.26,6.1-10.23,13-10.43a17.56,17.56,0,0,1,1.79,0,13.26,13.26,0,0,1,5.65,1.58c4.73,2.58,7.24,8.2,7.46,16l.05,4.25.14,11.64.41,35.21.07,5.42"/><line class="cls-10" x1="366.24" y1="378.16" x2="366.93" y2="372.66"/><line class="cls-15" x1="406.23" y1="839.23" x2="394.48" y2="844.9"/><line class="cls-15" x1="408.75" y1="844.69" x2="400.15" y2="852.44"/><line class="cls-15" x1="413.36" y1="849.72" x2="407.49" y2="858.53"/><line class="cls-15" x1="419.72" y1="852.51" x2="416.71" y2="863.56"/><line class="cls-15" x1="514.24" y1="846.99" x2="505.85" y2="852.44"/><line class="cls-15" x1="519.06" y1="851.19" x2="513.82" y2="858.95"/><line class="cls-15" x1="525.98" y1="854.33" x2="523.47" y2="863.35"/><line class="cls-15" x1="533.32" y1="855.17" x2="533.32" y2="864.82"/><path class="cls-15" d="M359.67,844.26a8.81,8.81,0,1,1-8.81-8.81A8.81,8.81,0,0,1,359.67,844.26Z"/><path class="cls-15" d="M463.47,878.85a8.81,8.81,0,0,1,13.65,7.36,8.81,8.81,0,0,1-13.79,7.27"/><path class="cls-9" d="M414.76,324.42a39.72,39.72,0,0,1,18.16-3.59c15.63.65,31.55,11,35.57,37.22"/><path class="cls-13" d="M467.54,225.69c7.46-26.94,42.73-33.35,68.49-27.18,30.44,7.28,31.39,20.12,28.72,26.14a9.6,9.6,0,0,1-6,5.14c-3.24,1.15-7.23,1.32-11,1.24-6.86-.16-14.48-.34-20.91-.78,4.57,13.94-3.49,32.22-14.05,37.42,0,0,11.72,7.69,11.92,19.23"/></svg>