<svg width="20" height="20" viewBox="0 0 20 20" fill="none" xmlns="http://www.w3.org/2000/svg">
<path d="M0.833313 17.5H4.16665V7.49998H0.833313V17.5ZM19.1666 8.33331C19.1666 7.41248 18.4208 6.66665 17.5 6.66665H12.2375L13.0333 2.85831C13.05 2.77498 13.0625 2.68748 13.0625 2.59581C13.0625 2.24998 12.9208 1.93748 12.6958 1.71248L11.8083 0.833313L6.32081 6.32081C6.02081 6.62498 5.83331 7.04165 5.83331 7.49998V15.8333C5.83331 16.7541 6.57915 17.5 7.49998 17.5H15C15.6916 17.5 16.2833 17.0791 16.5333 16.4833L19.0458 10.6083C19.1208 10.4166 19.1666 10.2125 19.1666 9.99998V8.40415L19.1583 8.39581L19.1666 8.33331Z" 
fill="currentColor"/>
</svg>
