<svg width="20" height="20" viewBox="0 0 20 20" fill="none" xmlns="http://www.w3.org/2000/svg">
<path d="M12.5 2.5H4.99998C4.30831 2.5 3.71665 2.92083 3.46665 3.51667L0.954146 9.39167C0.879146 9.58333 0.833313 9.7875 0.833313 10V11.5958L0.841646 11.6042L0.833313 11.6667C0.833313 12.5875 1.57915 13.3333 2.49998 13.3333H7.76248L6.96665 17.1417C6.94998 17.225 6.93748 17.3125 6.93748 17.4042C6.93748 17.75 7.07915 18.0625 7.30415 18.2875L8.19165 19.1667L13.6791 13.6792C13.9791 13.375 14.1666 12.9583 14.1666 12.5V4.16667C14.1666 3.24583 13.4208 2.5 12.5 2.5ZM15.8333 2.5V12.5H19.1666V2.5H15.8333Z" 
fill="currentColor"/>
</svg>
