<svg width="20" height="20" viewBox="0 0 20 20" fill="none" xmlns="http://www.w3.org/2000/svg">
  <g clip-path="url(#clip0_9633_19990)">
    <path
      d="M7.49984 1.66602L5.97484 3.33268H3.33317C2.41234 3.33268 1.6665 4.07852 1.6665 4.99935V14.9993C1.6665 15.9202 2.41234 16.666 3.33317 16.666H16.6665C17.5873 16.666 18.3332 15.9202 18.3332 14.9993V4.99935C18.3332 4.07852 17.5873 3.33268 16.6665 3.33268H14.0248L12.4998 1.66602H7.49984ZM9.99984 14.166C7.69984 14.166 5.83317 12.2993 5.83317 9.99935C5.83317 7.69935 7.69984 5.83268 9.99984 5.83268C12.2998 5.83268 14.1665 7.69935 14.1665 9.99935C14.1665 12.2993 12.2998 14.166 9.99984 14.166Z"
      fill="currentColor"/>
  </g>
  <defs>
    <clipPath id="clip0_9633_19990">
      <rect width="20" height="20" fill="white"/>
    </clipPath>
  </defs>
</svg>
