<svg width="20" height="20" viewBox="0 0 20 20" fill="none" xmlns="http://www.w3.org/2000/svg">
  <path
    d="M9.99518 1.66675C5.39102 1.66675 1.66602 5.39591 1.66602 10.0001C1.66602 14.6042 5.39102 18.3334 9.99518 18.3334C14.5993 18.3334 18.3327 14.6042 18.3327 10.0001C18.3327 5.39591 14.5993 1.66675 9.99518 1.66675ZM15.766 6.66675H13.3077C13.0368 5.62508 12.6577 4.62508 12.1577 3.70008C13.691 4.22508 14.966 5.28758 15.766 6.66675ZM9.99935 3.36258C10.6952 4.36258 11.2368 5.47508 11.591 6.66675H8.40768C8.76185 5.47508 9.30352 4.36258 9.99935 3.36258ZM3.54935 11.6667C3.41185 11.1334 3.33268 10.5751 3.33268 10.0001C3.33268 9.42508 3.41185 8.86675 3.54935 8.33342H6.36185C6.29518 8.87925 6.24935 9.43341 6.24935 10.0001C6.24935 10.5667 6.29518 11.1209 6.36602 11.6667H3.54935ZM4.22852 13.3334H6.68685C6.95768 14.3751 7.33685 15.3751 7.83685 16.3042C6.30352 15.7792 5.02852 14.7126 4.22852 13.3334ZM6.68685 6.66675H4.22852C5.02852 5.28758 6.30352 4.22091 7.83685 3.69591C7.33685 4.62508 6.95768 5.62508 6.68685 6.66675ZM9.99935 16.6376C9.30768 15.6376 8.76602 14.5251 8.40768 13.3334H11.591C11.2327 14.5251 10.691 15.6376 9.99935 16.6376ZM11.9493 11.6667H8.04935C7.97018 11.1209 7.91602 10.5667 7.91602 10.0001C7.91602 9.43341 7.97018 8.87925 8.04935 8.33342H11.9493C12.0285 8.87925 12.0827 9.43341 12.0827 10.0001C12.0827 10.5667 12.0285 11.1209 11.9493 11.6667ZM12.1618 16.3001C12.6618 15.3709 13.041 14.3751 13.3118 13.3334H15.7702C14.966 14.7126 13.691 15.7751 12.1618 16.3001ZM13.6327 11.6667C13.6994 11.1209 13.7493 10.5667 13.7493 10.0001C13.7493 9.43341 13.7035 8.87925 13.6327 8.33342H16.4452C16.5827 8.86675 16.666 9.42508 16.666 10.0001C16.666 10.5751 16.5869 11.1334 16.4452 11.6667H13.6327Z"
    fill="currentColor"/>
</svg>
