<svg width="20" height="20" viewBox="0 0 20 20" fill="none" xmlns="http://www.w3.org/2000/svg">
  <path
    d="M14.1665 13.4038C13.5332 13.4038 12.9623 13.6496 12.529 14.0454L6.5915 10.5829C6.63734 10.3954 6.6665 10.1996 6.6665 9.99961C6.6665 9.79961 6.63734 9.60378 6.5915 9.41628L12.4665 5.98711C12.9123 6.40378 13.5082 6.66211 14.1665 6.66211C15.5457 6.66211 16.6665 5.54128 16.6665 4.16211C16.6665 2.78294 15.5457 1.66211 14.1665 1.66211C12.7873 1.66211 11.6665 2.78294 11.6665 4.16211C11.6665 4.36211 11.6957 4.55794 11.7415 4.74544L5.8665 8.17461C5.42067 7.75794 4.82484 7.49961 4.1665 7.49961C2.78734 7.49961 1.6665 8.62044 1.6665 9.99961C1.6665 11.3788 2.78734 12.4996 4.1665 12.4996C4.82484 12.4996 5.42067 12.2413 5.8665 11.8246L11.804 15.2871C11.7623 15.4621 11.7373 15.6454 11.7373 15.8329C11.7373 17.1746 12.8248 18.2621 14.1665 18.2621C15.5082 18.2621 16.5957 17.1746 16.5957 15.8329C16.5957 14.4913 15.5082 13.4038 14.1665 13.4038Z"
    fill="currentColor"/>
</svg>
